<?xml version="1.0" encoding="UTF-8"?>
<svg xmlns="http://www.w3.org/2000/svg" width="1150" height="748" viewBox="0 0 1150 748" fill="none">
  <path d="M903.774 417.969C900.797 420.426 900.306 424.703 897.184 427.016C894.641 428.894 893.745 431.38 891.75 433.259C889.236 434.993 886.403 436.178 883.975 438.086C882.906 438.924 881.692 439.993 881.287 441.323C880.738 443.086 880.16 442.45 878.368 443.144C874.322 444.704 871.836 449.445 868.83 452.335C865.535 455.514 861.604 458.26 856.951 458.809C853.251 459.098 843.424 468.55 843.395 468.694C841.806 469.706 841.228 471.238 838.193 471.555C832.441 472.162 826.689 472.741 820.938 473.261C809.521 474.301 798.046 475.139 786.601 475.718C763.651 476.903 740.644 477.076 717.695 476.064C719.372 472.625 719.863 468.839 721.684 465.544C722.898 463.376 724.777 461.006 725.412 458.578C725.759 457.22 727.06 455.196 727.204 453.925C727.436 451.728 725.586 450.051 725.904 447.797C725.962 447.306 726.713 444.155 727.436 441.12C727.84 439.415 728.245 437.768 728.534 436.669C729.17 434.559 756.079 434.155 759.663 433.837C758.535 432.883 757.957 431.236 756.801 430.311C774.143 428.981 791.485 427.709 808.827 426.38C817.498 425.715 826.169 425.05 834.84 424.385C836.95 424.212 846.083 423.432 857.24 422.449C873.917 420.975 895.074 419.009 903.774 417.911V417.969Z" fill="#A3D3D8" stroke="#34317A" stroke-width="1.5" stroke-miterlimit="10"></path>
  <path d="M616.1 438.606C616.881 465.399 618.528 495.834 619.655 520.922C619.655 523.466 617.141 522.772 615.898 522.078C608.961 518.061 607.805 514.159 599.047 514.852C595.492 515.141 579.249 521.067 576.965 517.743C575.491 515.575 566.676 507.424 564.739 512.338C561.618 520.315 556.213 511.268 548.987 515.113C542.368 518.639 540.952 511.529 538.755 506.933C535.316 501.615 531.847 510.604 533.35 511.297C530.778 510.083 529.651 507.077 526.298 506.239C521.789 505.112 516.298 504.072 513.436 499.765C508.725 492.684 493.753 495.429 493.955 488.261C494.389 472.423 494.851 456.584 495.285 440.745C495.545 431.467 478.03 434.27 470.313 433.461C457.075 432.074 443.837 430.686 430.6 429.299L431.611 415.946C433.923 416.177 451.092 417.911 453.375 418.113L453.491 416.986L615.696 423.807L616.042 438.577L616.1 438.606Z" fill="#A3D3D8" stroke="#34317A" stroke-width="1.5" stroke-miterlimit="10"></path>
  <path d="M611.129 344.844C608.47 341.636 604.279 339.439 600.695 337.56L597.516 323.687C616.043 323.398 634.772 323.86 653.241 322.415C659.773 321.924 666.594 321.288 673.069 322.56C679.514 323.802 678.82 328.86 683.647 331.028C683.849 335.45 684.63 345.711 686.566 348.919C688.879 352.706 693.908 352.879 695.469 356.608C696.971 360.22 699.226 364.209 702.29 366.724C705.093 369.007 708.648 366.926 710.845 370.626C712.897 374.094 712.724 379.73 709.805 382.736C707.608 390.887 723.187 397.795 725.817 404.963C727.407 409.298 733.043 421.264 737.349 424.675C737.32 426.495 737.234 428.287 736.482 430.051C735.615 432.045 733.968 432.507 732.002 432.392C728.014 432.132 729.661 434.299 728.447 436.756C728.158 437.854 727.753 439.502 727.349 441.207L716.25 441.467C715.903 439.993 715.383 438.201 714.227 436.091L616.071 438.606C615.927 433.519 615.811 428.576 615.725 423.836L614.684 364.816C614.684 364.816 609.164 362.099 609.077 355.567C608.99 349.382 613.47 347.705 611.129 344.873V344.844Z" fill="#A3D3D8" stroke="#34317A" stroke-width="1.5" stroke-miterlimit="10"></path>
  <path d="M320.537 286.373C346.809 290.593 394.558 296.055 421.004 299.321C421.004 299.321 455.485 304.206 460.081 304.813C460.399 304.842 463.896 305.16 463.896 305.42C463.607 308.513 463.318 311.634 463.029 314.727C462.653 318.802 461.873 327.184 461.497 331.259L453.549 417.015L453.433 418.142C451.121 417.94 433.953 416.206 431.669 415.975C389.268 410.165 346.867 404.587 304.611 397.823L320.565 286.373H320.537Z" fill="#A3D3D8" stroke="#34317A" stroke-width="1.5" stroke-miterlimit="10"></path>
  <path d="M857.211 422.507C846.054 423.489 836.921 424.27 834.811 424.443C826.14 425.137 817.469 425.802 808.798 426.438C791.456 427.767 774.114 429.039 756.772 430.368C757.928 431.293 758.477 432.941 759.634 433.895C756.05 434.213 729.141 434.617 728.505 436.727C729.719 434.299 728.071 432.103 732.06 432.363C734.025 432.478 735.673 432.045 736.54 430.022C737.291 428.259 737.378 426.467 737.407 424.646C737.436 422.449 737.407 420.223 738.332 417.911C740.24 413.2 746.396 419.125 750.385 415.715C755.963 410.946 756.917 408.922 757.206 401.841C757.321 398.835 758.246 398.777 760.414 398.43C763.507 398.344 763.478 396.031 764.663 393.979C765.356 393.315 769.085 394.471 771.05 392.997C773.594 391.06 775.935 392.361 778.768 392.621C781.311 392.852 783.565 391.754 785.907 390.944C787.467 391.262 789.202 393.69 790.907 392.014C795.127 391.262 791.658 382.967 794.52 382.071C800.185 383.141 799.231 392.13 806.052 385.8C810.012 382.129 812.873 377.505 812.844 372.013C812.844 365.885 817.989 365.654 821.949 362.677C825.273 360.192 823.336 354.44 825.62 353.284C826.198 352.966 827.065 352.966 828.394 353.399C834.001 355.249 846.17 363.515 852.211 361.434C855.505 360.307 865.188 358.371 868.194 360.22C871.72 362.359 875.478 367.822 880.102 367.244C874.871 376.233 884.293 381.117 885.016 387.418C885.218 389.297 884.669 391.291 882.703 393.546C879.813 396.899 875.333 398.691 873.397 402.882C872.212 405.483 872.183 409.703 868.396 408.344C868.454 415.05 858.945 416.177 857.269 422.536L857.211 422.507Z" fill="#A3D3D8" stroke="#34317A" stroke-width="1.5" stroke-miterlimit="10"></path>
  <path d="M838.163 471.613C841.198 471.295 841.776 469.735 843.366 468.752C843.395 468.607 853.222 459.156 856.921 458.867C861.575 458.318 865.506 455.572 868.801 452.393C871.807 449.502 874.292 444.733 878.339 443.201C880.16 442.508 880.709 443.144 881.258 441.381C881.663 440.022 882.876 438.982 883.946 438.143C886.374 436.236 889.206 435.022 891.721 433.317C893.715 431.438 894.611 428.923 897.155 427.073C900.305 424.761 900.796 420.484 903.745 418.027C906.693 417.535 916.086 416.004 919.005 415.512C955.423 409.558 991.87 403.604 1028.29 397.621C1031.79 402.072 1020.11 400.511 1026.61 404.413C1033.81 408.72 1024.76 412.651 1020.54 413.749C1018.11 414.356 1014.7 413.951 1012.71 415.57C1011.64 416.437 1008.75 420.657 1012.19 420.455C1017.42 420.166 1021.06 414.269 1026.15 414.269C1026.76 414.327 1028.03 421.033 1028.43 421.698C1030.34 424.848 1028.84 414.385 1028.92 413.951C1029.39 411.784 1031.99 411.87 1033.06 413.402C1034.3 415.165 1034.47 417.709 1034.3 419.761C1033.58 427.941 1026.87 423.345 1022.05 426.495C1023.84 428.548 1028.29 427.565 1030.66 427.767C1031.18 430.051 1025.17 437.479 1022.74 436.062C1021.21 435.166 1018.29 428.808 1016.21 429.877C1015.92 430.022 1017.65 435.195 1017.25 436.091C1016.93 436.814 1011.21 431.582 1009.15 435.369C1006.24 440.831 1023.64 438.635 1026.67 440.311C1034.73 444.733 1020.98 450.774 1017.16 451.034C1015.31 451.15 1013.23 453 1011.32 453.578C1009.01 454.242 1006.61 454.676 1004.5 455.919C1001.24 457.884 1002.91 460.399 1004.5 461.093C1002.68 463.752 1002.77 467.856 999.848 470.66C995.599 474.735 998.952 478.03 998.113 482.77C995.628 482.105 993.258 483.261 991.292 482.857C989.5 482.481 986.783 479.937 985.483 482.51C983.662 486.152 981.668 485.863 979.5 484.417C978.777 483.926 978.026 483.319 977.245 482.712C969.384 476.296 961.493 469.879 953.632 463.463C948.342 459.156 938.284 463.752 931.983 464.908C925.942 466.006 921.809 457.133 915.595 457.48C907.386 457.942 896.808 456.67 888.946 458.983C882.934 460.746 878.772 467.249 872.327 467.943C863.454 468.925 846.979 470.659 838.105 471.642L838.163 471.613Z" fill="#A3D3D8" stroke="#34317A" stroke-width="1.5" stroke-miterlimit="10"></path>
  <path d="M421.004 299.293C394.558 296.055 346.81 290.564 320.537 286.344L279.985 278.251L285.159 250.504C286.257 249.608 299.322 181.946 299.322 181.946L302.79 166.714L433.577 187.611C431.38 207.005 430.426 224.607 428.201 244.203L421.004 299.321V299.293Z" fill="#A3D3D8" stroke="#34317A" stroke-width="1.5" stroke-miterlimit="10"></path>
  <path d="M635.639 633.356C631.332 622.979 639.946 605.811 638.963 594.539C638.558 589.77 636.333 586.272 636.333 580.578C636.333 576.069 631.853 572.919 630.118 568.41C627.72 562.196 626.939 560.606 627.315 553.901C627.459 551.213 626.303 539.767 628.182 537.859C628.095 533.09 627.72 524.622 625.667 524.073C623.673 522.974 621.679 521.934 619.627 520.922C619.627 523.466 617.112 522.772 615.869 522.078C608.932 518.061 607.776 514.159 599.019 514.852C595.464 515.141 579.22 521.067 576.937 517.743C575.463 515.575 566.647 507.424 564.711 512.338C561.589 520.315 556.184 511.268 548.958 515.113C542.34 518.639 540.923 511.529 538.727 506.933C535.287 501.615 531.819 510.604 533.322 511.297C530.749 510.083 529.622 507.077 526.269 506.239C521.76 505.112 516.269 504.072 513.407 499.765C508.696 492.684 493.724 495.429 493.927 488.261C494.36 472.423 494.823 456.584 495.256 440.745C495.516 431.467 478.001 434.27 470.284 433.461C457.046 432.074 443.809 430.686 430.571 429.299C427.189 471.931 423.808 514.535 420.426 557.167C405.338 555.664 390.222 554.132 375.135 552.629C366.088 551.733 357.041 550.808 348.023 549.912C342.185 549.334 341 548.871 340.277 554.305C342.619 556.011 341.925 557.976 343.254 560.173C345.538 563.959 348.486 565.231 351.347 568.526C357.215 575.26 362.157 582.081 368.429 588.556C374.412 594.741 374.499 601.244 375.857 609.192C377.649 619.684 381.898 622.343 389.124 629.627C394.095 634.656 399.038 636.072 404.182 640.87C414.298 650.293 418.663 633.789 422.969 625.985C426.669 619.251 433.346 620.002 440.282 622.632C446.063 624.829 454.243 626.823 459.358 631.043C471.238 640.87 472.77 651.998 480.082 664.109C483.608 669.976 485.545 677.751 490.083 683.242C493.32 687.144 496.817 688.647 498.204 693.966C499.476 698.763 499.389 703.821 501.152 708.533C503.812 715.643 510.286 723.649 516.442 728.071C524.333 733.736 534.738 729.661 541.877 734.083C546.328 736.829 550.866 746.107 552.687 735.384C553.467 730.846 554.277 726.684 553.641 722.002C553.641 721.944 553.236 710.643 551.993 712.117C550.461 713.909 549.652 725.73 551.097 727.551C548.294 723.996 549.536 721.452 548.612 717.348C547.773 713.562 544.767 709.197 543.091 705.787C537.773 694.919 546.762 696.307 545.606 702.29C549.941 701.712 544.941 687.26 546.733 682.664C549.623 675.207 561.3 663.762 564.595 665.149C567.138 666.218 549.999 675.583 554.681 684.977C554.681 672.173 580.463 674.051 567.052 655.264C570.087 651.565 575.058 653.154 579.422 653.877C587.602 655.235 578.931 662.692 574.48 662.692C589.365 662.692 600.84 650.669 614.106 645.35C606.823 648.992 606.476 638.153 607.458 633.442C608.499 628.5 620.089 628.962 620.985 630.176C621.794 631.274 612.256 639.888 612.661 641.391C613.817 645.524 622.43 637.633 623.355 636.997C625.87 635.292 632.662 633.673 635.523 633.356H635.639Z" fill="#A3D3D8" stroke="#34317A" stroke-width="1.5" stroke-miterlimit="10"></path>
  <path d="M340.335 554.334C341.058 548.9 342.272 549.363 348.081 549.941C357.128 550.837 366.146 551.762 375.192 552.658C390.28 554.161 405.396 555.693 420.484 557.196C423.865 514.563 427.247 471.96 430.629 429.328L431.64 415.975C389.239 410.165 346.838 404.587 304.582 397.823L283.165 557.889L299.061 560.606L301.663 548.467L340.335 554.363V554.334Z" fill="#A3D3D8" stroke="#34317A" stroke-width="1.5" stroke-miterlimit="10"></path>
  <path d="M1088.93 190.385C1087.31 190.241 1085.69 188.911 1084.56 185.703C1082.25 179.142 1079.94 172.581 1077.63 166.02C1073.2 153.389 1068.75 140.787 1064.3 128.157C1063.18 128.648 1059.48 130.989 1058.52 132.145C1058.61 133.908 1058.67 135.643 1058.78 137.377C1059.01 141.076 1059.48 144.632 1060.8 148.216C1061.96 151.337 1062.22 157.291 1058.46 158.881C1058 159.719 1056.18 159.517 1055.63 160.731C1055.34 162.754 1055.78 164.922 1056.06 166.945C1056.5 170.095 1057.65 175.298 1054.94 177.812C1053.2 180.125 1052.83 183.911 1054.1 186.079C1057.42 191.715 1055.54 202.525 1055.66 204.374C1062.42 202.9 1069.19 201.426 1075.98 199.952C1078.23 199.461 1080.14 199.808 1080.81 197.553C1081.5 195.154 1084.91 193.622 1088.9 190.385H1088.93Z" fill="#A3D3D8" stroke="#34317A" stroke-width="1.5" stroke-miterlimit="10"></path>
  <path d="M1064.33 128.157C1071.53 129.602 1071.44 116.249 1072.37 111.798C1074.16 103.184 1071.04 98.531 1070.02 89.9467C1069.36 84.484 1072.86 78.2698 1074.65 73.3274C1075.31 71.5065 1077.8 60.2631 1079.59 59.5695C1082.66 59.5695 1084.94 65.2056 1088.03 63.6448C1092.05 61.6216 1088.61 58.8758 1093.73 60.6678C1095.55 61.217 1097.43 61.5638 1099.33 61.6794C1111.24 62.8355 1111.24 71.3331 1114.07 81.218C1115.63 86.7096 1117.31 92.2879 1120.06 97.3459C1123 102.78 1124.25 101.768 1129.54 103.242C1140.12 106.219 1140.09 111.219 1144.88 119.428C1143.99 117.867 1145.98 119.428 1144.88 119.428C1145.75 119.601 1146.47 120.006 1147.02 120.642C1137.46 129.024 1128.73 141.741 1117.02 147.609C1117.02 144.371 1117.02 140.18 1114.54 137.695C1111.41 142.406 1119.02 166.974 1107.11 155.037C1107.11 156.742 1110.4 169.257 1105.26 168.043C1102.31 167.349 1100.86 160.384 1098.09 165.037C1096.38 167.899 1102.17 170.124 1098.87 172.725C1097.02 174.171 1093.41 176.338 1098.23 176.656C1098.23 179.2 1095.75 181.05 1093.49 181.657C1096.33 184.865 1092.69 190.79 1088.96 190.414C1087.34 190.27 1085.72 188.94 1084.59 185.732C1082.28 179.171 1079.97 172.61 1077.66 166.049C1073.23 153.418 1068.78 140.816 1064.33 128.186V128.157Z" fill="#A3D3D8"></path>
  <path d="M1144.88 119.428C1140.09 111.219 1140.12 106.219 1129.54 103.242C1124.25 101.768 1123 102.78 1120.06 97.3459C1117.31 92.2879 1115.63 86.7096 1114.07 81.218C1111.24 71.3331 1111.24 62.8355 1099.33 61.6794C1097.43 61.5638 1095.55 61.217 1093.73 60.6678C1088.61 58.8758 1092.05 61.6216 1088.03 63.6448C1084.94 65.2056 1082.66 59.5695 1079.59 59.5695C1077.8 60.2631 1075.31 71.5065 1074.65 73.3274C1072.86 78.2698 1069.36 84.484 1070.02 89.9467C1071.04 98.531 1074.16 103.184 1072.37 111.798C1071.44 116.249 1071.53 129.602 1064.33 128.157V128.186C1068.78 140.816 1073.23 153.418 1077.66 166.049C1079.97 172.61 1082.28 179.171 1084.59 185.732C1085.72 188.94 1087.34 190.27 1088.96 190.414C1092.69 190.79 1096.33 184.865 1093.49 181.657C1095.75 181.05 1098.23 179.2 1098.23 176.656C1093.41 176.338 1097.02 174.171 1098.87 172.725C1102.17 170.124 1096.38 167.899 1098.09 165.037C1100.86 160.384 1102.31 167.349 1105.26 168.043C1110.4 169.257 1107.11 156.742 1107.11 155.037C1119.02 166.974 1111.41 142.406 1114.54 137.695C1117.02 140.18 1117.02 144.371 1117.02 147.609C1128.73 141.741 1137.46 129.024 1147.02 120.642C1146.47 120.006 1145.75 119.601 1144.88 119.428ZM1144.88 119.428C1143.99 117.867 1145.98 119.428 1144.88 119.428Z" stroke="#34317A" stroke-width="1.5" stroke-miterlimit="10"></path>
  <path d="M1055.72 204.374C1055.6 202.525 1057.45 191.715 1054.16 186.079C1052.88 183.911 1053.26 180.125 1054.99 177.812C1057.68 175.269 1056.53 170.095 1056.12 166.945C1055.86 164.922 1055.43 162.754 1055.69 160.731C1056.24 159.517 1058.06 159.69 1058.52 158.881C1062.28 157.291 1062.02 151.308 1060.86 148.216C1059.53 144.66 1059.1 141.076 1058.84 137.377L1024.21 147.059C1025.14 150.528 1024.21 157.551 1026.21 161.02C1028.66 165.268 1028.46 168.679 1028.75 173.419C1028.87 175.327 1030.48 184.027 1031.9 185.125C1033.06 186.05 1033.66 184.489 1034.44 186.657C1034.94 188.94 1036.06 193.333 1036.01 193.131C1036.9 198.045 1038.46 203.189 1039.36 207.958C1041.38 207.525 1053.72 204.837 1055.75 204.403L1055.72 204.374Z" fill="#A3D3D8" stroke="#34317A" stroke-width="1.5" stroke-miterlimit="10"></path>
  <path d="M1088.93 190.385C1089.48 191.05 1090.81 196.513 1091.5 197.322C1094.71 201.022 1090.78 203.739 1089.27 207.93C1087.31 213.421 1095.92 209.115 1099.04 213.277C1101.21 216.167 1102.31 220.878 1107.02 219.086C1107.69 218.826 1112.46 215.704 1113.9 213.016C1116.94 215.733 1116.91 223.19 1116.79 222.872C1116.99 223.595 1112.14 223.971 1110.98 224.404C1108.24 225.416 1106.7 227.844 1104.39 229.462C1101.93 231.168 1103.35 226.543 1102.92 225.358C1101.47 221.456 1095.95 231.63 1094.88 232.439C1093.26 233.624 1092.02 227.266 1089.59 226.919C1085.63 226.37 1085.92 223.248 1084.07 219.838C1081.44 220.907 1078.75 221.803 1076.04 222.67C1070.34 224.462 1064.56 226.023 1058.78 227.439C1053.87 228.624 1046.12 230.214 1041.15 231.197C1040.63 223.364 1040.52 215.531 1039.33 207.93C1041.35 207.496 1053.7 204.808 1055.72 204.374C1062.48 202.9 1069.24 201.426 1076.04 199.952C1078.29 199.461 1080.2 199.808 1080.86 197.553C1081.56 195.154 1084.97 193.622 1088.96 190.385H1088.93Z" fill="#A3D3D8" stroke="#34317A" stroke-width="1.5" stroke-miterlimit="10"></path>
  <path d="M1076.04 222.67C1078.73 221.832 1081.44 220.936 1084.07 219.838C1085.92 223.248 1085.6 226.37 1089.59 226.919C1092.02 227.266 1093.29 233.624 1094.88 232.439C1094.94 233.364 1091.33 235.041 1090.63 235.619C1088.87 236.168 1090.29 229.231 1087.92 230.156C1085.31 231.168 1088.32 236.544 1086.3 239.261C1085.2 240.735 1080.4 242.7 1080.4 242.7C1080.4 242.7 1077.4 227.468 1076.07 222.699L1076.04 222.67Z" fill="#A3D3D8" stroke="#34317A" stroke-width="1.5" stroke-miterlimit="10"></path>
  <path d="M1076.04 222.67C1077.4 227.439 1080.37 242.671 1080.37 242.671C1076.07 245.533 1068.98 247.614 1064.53 250.013C1061.47 251.66 1058.43 253.336 1055.37 254.955C1052.19 256.602 1047.19 261.054 1043.95 262.643C1043.4 260.967 1042.88 259.319 1042.91 259.03C1043.06 257.961 1044.5 256.371 1045.08 255.446C1045.83 254.204 1043.55 248.799 1043.2 247.238C1042.02 241.977 1041.5 236.601 1041.15 231.225C1046.12 230.214 1053.87 228.653 1058.78 227.468C1064.59 226.052 1070.34 224.462 1076.04 222.699V222.67Z" fill="#A3D3D8" stroke="#34317A" stroke-width="1.5" stroke-miterlimit="10"></path>
  <path d="M728.043 594.77C721.568 594.972 715.123 595.03 708.649 595.059C702.001 595.059 695.238 595.29 688.619 594.596C684.572 594.163 694.862 576.474 696.105 572.746C698.417 565.664 704.92 537.281 694.544 537.339C681.22 537.455 667.895 537.541 654.542 537.657C650.727 537.657 630.928 535.085 628.211 537.859C626.332 539.796 627.489 551.213 627.344 553.901C626.997 560.606 627.778 562.225 630.148 568.41C631.882 572.89 636.391 576.041 636.362 580.578C636.362 586.272 638.587 589.77 638.992 594.539C639.975 605.84 631.333 623.008 635.668 633.356C637.431 633.5 646.276 632.604 648.097 629.858C649.426 627.835 642.46 620.696 646.94 620.696C650.756 620.696 654.831 630.985 657.259 633.413C662.317 638.414 672.491 635.465 678.647 635.465C680.642 633.847 671.132 629.136 676.537 626.881C680.988 625.031 679.89 631.592 683.879 631.014C686.567 630.61 689.688 626.13 691.047 628.037C691.943 631.13 688.532 635.437 691.047 637.951C693.532 635.465 695.989 633.009 698.475 630.523C694.573 644.136 702.088 645.842 712.493 651.015C724.112 656.767 725.702 644.541 725.702 635.494C728.187 637.98 734.141 646.478 734.17 650.062C736.8 651.565 743.882 649.426 745.096 648.067C745.298 646.68 748.188 644.079 745.385 642.229C742.234 640.119 735.211 639.859 734.026 635.494C733.852 634.83 737.61 630.465 737.985 630.436C739.951 627.257 739.344 614.366 736.136 620.84C733.361 626.477 734.084 629.165 726.135 626.303C721.626 624.685 712.782 622.054 709.198 618.904C703.648 613.962 713.331 616.129 716.337 613.904C724.025 608.239 728.708 618.759 735.904 616.678C735.673 616.071 734.893 612.748 733.881 612.198C727.465 608.846 729.806 594.683 728.043 594.741V594.77Z" fill="#A3D3D8" stroke="#34317A" stroke-width="1.5" stroke-miterlimit="10"></path>
  <path d="M157.349 493.464C155.21 492.597 130.498 490.025 128.185 489.851C119.486 489.129 110.815 488.435 102.115 487.741C94.282 487.134 102.924 483.926 99.3112 479.764C98.4441 480.862 94.889 484.822 95.0046 480.631C95.0913 477.509 99.3979 475.024 100.034 471.671C100.901 466.931 94.3687 460.37 92.6345 455.688C90.9293 451.063 88.7326 447.681 83.3277 447.826C79.8593 447.913 77.3448 448.346 78.1251 444.04C78.7032 440.918 80.264 436.583 77.258 434.184C75.2637 432.594 72.5757 432.854 70.3791 431.698C68.4426 430.657 66.8818 429.097 65.4077 427.507C61.8815 423.663 58.2976 417.911 52.6036 417.391C49.3665 417.102 46.0426 415.801 43.0367 414.587C39.6839 413.229 34.5102 411.206 33.0651 407.506C32.4292 405.887 33.1518 404.327 34.3657 403.199C36.2444 401.407 34.8571 395.193 35.0594 392.274C35.464 386.06 35.6375 382.476 33.094 376.984C31.88 374.354 30.6083 372.1 29.0186 369.672C24.8855 363.4 17.6886 352.185 19.0181 344.295C19.5095 341.404 18.3533 340.219 16.0989 338.052C13.382 335.45 13.3531 333.138 13.2953 329.439C13.2086 322.444 14.7694 318.773 14.7694 311.779C20.6945 312.443 17.5152 320.999 24.7699 323.427C24.7699 316.895 19.9141 312.732 24.6831 306.432C27.5735 302.616 29.2788 301.171 33.1229 302.298C34.0478 302.559 37.1115 303.079 37.8919 301.836C38.6145 300.68 37.1693 298.079 36.0421 297.645C31.7066 295.969 24.1918 300.535 19.6829 300.998C16.0122 301.374 3.58382 298.57 9.39336 293.194C15.0006 288.02 11.9368 287.211 8.26614 280.939C3.72834 273.222 1.64731 265.013 2.22537 256.082C2.4855 251.978 3.12137 247.932 3.69943 243.885C4.19079 240.388 6.01169 235.272 5.63595 231.948C5.08679 227.035 1.70511 223.595 4.59543 218.653C6.93659 214.606 10.3472 211.224 12.2548 206.918C13.5554 203.999 12.4571 201.426 14.9428 200.155C17.1105 199.056 17.8331 195.588 18.2955 193.449C18.8158 191.021 20.7523 183.651 20.7523 178.853C22.6021 179.431 24.4519 180.038 26.3017 180.616C49.3665 187.957 82.4028 198.131 105.583 205.126L84.6573 273.858C84.6573 273.858 82.2005 291.286 88.5303 301.663C98.3574 317.819 108.416 333.803 118.445 349.815C132.579 372.389 154.285 406.783 168.505 429.299C172.812 433.085 174.026 441.872 175.789 447.074C176.945 450.514 172.118 455.485 170.326 458.173C165.066 466.093 158.331 473.29 158.996 483.001C159.083 484.042 159.806 494.418 157.32 493.406L157.349 493.464Z" fill="#A3D3D8" stroke="#34317A" stroke-width="1.5" stroke-miterlimit="10"></path>
  <path d="M285.188 250.504C272.557 247.96 239.116 240.532 226.543 237.758C217.988 277.673 203.594 337.358 195.154 377.302C222.208 382.447 249.232 387.621 276.257 392.765C284.378 394.326 296.489 396.234 304.611 397.795L320.565 286.344L280.014 278.251L285.188 250.504Z" fill="#A3D3D8" stroke="#34317A" stroke-width="1.5" stroke-miterlimit="10"></path>
  <path d="M304.582 397.795C296.46 396.234 284.35 394.326 276.228 392.765C249.203 387.621 222.15 382.447 195.126 377.302C193.449 385.337 191.773 393.372 190.125 401.407C185.848 398.459 186.455 393.95 180.125 394.933C173.94 395.916 173.795 399.587 172.61 404.731C171.28 410.454 169.864 412.622 171.338 418.576C172.176 421.929 173.101 428.23 168.506 429.328C172.812 433.114 174.026 441.901 175.789 447.103C176.945 450.543 172.119 455.514 170.327 458.202C165.066 466.122 158.332 473.319 158.997 483.03C159.083 484.071 159.806 494.447 157.32 493.435C155.615 492.742 150.037 498.725 152.725 500.314C158.997 504.043 165.269 507.742 171.512 511.471C190.443 522.714 209.375 533.957 228.306 545.201C240.735 552.571 256.082 552.947 270.187 555.519C273.049 556.04 280.245 557.34 283.107 557.86L304.524 397.795H304.582Z" fill="#A3D3D8" stroke="#34317A" stroke-width="1.5" stroke-miterlimit="10"></path>
  <path d="M226.514 237.758C217.959 277.673 203.565 337.358 195.125 377.302C193.449 385.337 191.772 393.372 190.125 401.407C185.847 398.459 186.454 393.95 180.124 394.933C173.939 395.916 173.795 399.587 172.61 404.731C171.28 410.454 169.864 412.622 171.338 418.576C172.176 421.929 173.101 428.23 168.505 429.328C154.285 406.812 132.579 372.418 118.445 349.844C108.416 333.832 98.3862 317.819 88.5302 301.691C82.2004 291.286 84.6572 273.887 84.6572 273.887L105.583 205.155C129.688 212.41 143.967 216.456 168.216 223.133C193.044 229.751 201.426 232.179 226.485 237.729L226.514 237.758Z" fill="#A3D3D8" stroke="#34317A" stroke-width="1.5" stroke-miterlimit="10"></path>
  <path d="M615.725 423.836L453.52 417.015L461.468 331.259C462.422 331.346 568.15 338.948 600.666 337.618C604.25 339.497 608.412 341.665 611.1 344.902C613.47 347.734 609.048 349.064 609.048 355.596C609.048 362.128 614.655 364.845 614.655 364.845L615.696 423.865L615.725 423.836Z" fill="#A3D3D8" stroke="#34317A" stroke-width="1.5" stroke-miterlimit="10"></path>
  <path d="M67.2866 63.9338C65.6391 61.1591 64.6564 45.6959 69.6278 53.0084C70.1769 53.8177 72.1135 62.0262 74.5124 58.1243C76.0154 55.6675 71.9978 52.3437 71.7955 50.5806C71.5643 49.6846 75.4951 49.4534 76.3911 47.7192C73.9344 46.8521 69.3388 47.9215 69.3966 44.8867C69.4833 41.1581 72.0267 37.4007 73.154 33.9323C74.7725 28.9321 73.7609 24.0764 73.6453 18.9894C73.5297 14.2782 75.5818 10.0583 75.8998 5.4338C78.2409 8.1218 80.1774 11.3011 83.0967 13.4111C85.2933 15.0008 88.068 15.3187 90.3514 16.7639C94.2533 19.2495 97.4326 20.608 101.826 22.1109C104.312 22.978 108.965 23.2093 108.242 26.7933C107.491 30.5796 103.618 34.5682 104.774 38.6147C105.15 37.8632 106.508 52.2281 108.474 48.9331C109.948 46.4763 110.497 43.4126 111.335 40.7246C111.971 38.6436 113.127 37.1695 113.907 35.0885C116.191 29.1633 117.578 36.3602 118.532 37.5163C120.873 40.291 119.255 31.7068 118.879 30.8975C117.78 28.3829 120.151 24.1342 115.931 26.6776C113.358 24.7122 119.255 16.6193 120.035 14.7117C123.185 7.16799 118.416 13.729 116.306 12.5729C116.595 11.1566 117.896 4.97135 117.289 3.87303C151.221 12.8619 185.154 21.8219 219.086 30.8108C211.34 56.2456 203.623 81.6804 195.906 107.115C195.414 108.676 194.952 110.266 194.461 111.826C194.287 112.404 179.2 107.722 177.466 107.231C170.644 105.265 162.841 101.71 155.701 101.392C150.354 101.161 145.614 102.924 140.469 103.502C134.833 104.138 128.995 103.444 123.446 102.375C120.613 101.826 117.78 101.161 115.035 100.207C112.318 99.2535 111.74 97.4615 109.543 95.7273C108.242 93.5596 104.803 95.7563 103.069 96.0164C101.046 96.3054 97.635 94.34 95.6406 93.733C92.2879 92.7214 89.253 91.3919 88.357 87.779C88.2125 87.172 87.7212 83.2701 86.7963 83.0678C86.9408 83.0678 87.7501 84.2528 87.0564 83.5591C86.1026 82.085 88.0391 84.5418 87.0564 83.5591C85.698 81.4203 88.2125 79.4549 87.0564 76.9114C86.1026 74.8304 83.7903 73.7031 81.796 72.8071C76.738 70.5238 70.2926 69.0497 67.2577 63.9049L67.2866 63.9338Z" fill="#A3D3D8"></path>
  <path d="M87.0564 83.5591C87.7501 84.2528 86.9408 83.0678 86.7963 83.0678C87.7212 83.2701 88.2125 87.172 88.357 87.779C89.253 91.3919 92.2879 92.7214 95.6407 93.733C97.635 94.34 101.046 96.3054 103.069 96.0164C104.803 95.7563 108.242 93.5596 109.543 95.7273C111.74 97.4615 112.318 99.2535 115.035 100.207C117.78 101.161 120.613 101.826 123.446 102.375C128.995 103.444 134.833 104.138 140.469 103.502C145.614 102.924 150.354 101.161 155.701 101.392C162.841 101.71 170.644 105.265 177.466 107.231C179.2 107.722 194.287 112.404 194.461 111.826C194.952 110.266 195.414 108.676 195.906 107.115C203.623 81.6804 211.34 56.2456 219.086 30.8108C185.154 21.8219 151.221 12.8619 117.289 3.87303C117.896 4.97135 116.595 11.1566 116.306 12.5729C118.416 13.729 123.185 7.16799 120.035 14.7117C119.255 16.6193 113.358 24.7122 115.931 26.6776C120.151 24.1342 117.78 28.3829 118.879 30.8975C119.255 31.7068 120.873 40.291 118.532 37.5163C117.578 36.3602 116.191 29.1633 113.907 35.0885C113.127 37.1695 111.971 38.6436 111.335 40.7246C110.497 43.4126 109.948 46.4763 108.474 48.9331C106.508 52.2281 105.15 37.8632 104.774 38.6147C103.618 34.5682 107.491 30.5796 108.242 26.7933C108.965 23.2093 104.312 22.978 101.826 22.1109C97.4326 20.608 94.2533 19.2495 90.3514 16.7639C88.068 15.3187 85.2933 15.0008 83.0967 13.4111C80.1774 11.3011 78.2409 8.1218 75.8998 5.4338C75.5818 10.0583 73.5297 14.2782 73.6453 18.9894C73.7609 24.0764 74.7725 28.9321 73.154 33.9323C72.0267 37.4007 69.4833 41.1581 69.3966 44.8866C69.3388 47.9215 73.9344 46.8521 76.3911 47.7192C75.4951 49.4534 71.5643 49.6846 71.7955 50.5806C71.9978 52.3437 76.0154 55.6675 74.5124 58.1243C72.1135 62.0262 70.1769 53.8177 69.6278 53.0084C64.6564 45.6959 65.6391 61.1591 67.2866 63.9338L67.2577 63.9049C70.2926 69.0497 76.738 70.5238 81.796 72.8071C83.7903 73.7031 86.1026 74.8303 87.0564 76.9114C88.2125 79.4549 85.698 81.4203 87.0564 83.5591ZM87.0564 83.5591C86.1026 82.085 88.0391 84.5418 87.0564 83.5591Z" stroke="#34317A" stroke-width="1.5" stroke-miterlimit="10"></path>
  <path d="M20.7812 178.911C21.0991 177.466 21.0702 176.049 20.7523 174.604C20.3765 172.292 20.1453 170.124 21.6772 168.13C22.3419 164.459 19.7407 160.875 18.3533 157.696C17.1105 154.863 17.2839 151.828 21.0991 151.713C25.9259 151.568 26.9954 152.58 28.8741 147.348C31.4464 140.18 34.8281 134.92 39.1636 128.966C41.6782 125.527 46.6784 121.018 45.6379 116.509C44.5685 111.913 49.0774 104.687 51.0139 100.814C52.17 98.5021 53.3551 96.1898 54.8291 94.051C55.8407 92.5769 55.4072 91.5364 56.1298 90.2068C58.9334 86.1604 63.0665 82.692 64.3961 77.7785C65.0609 75.2928 65.5811 65.986 67.3731 63.9628C70.4079 69.0786 76.8533 70.5816 81.9114 72.8649C83.8768 73.7609 86.218 74.8882 87.1718 76.9692C88.3279 79.5127 85.8133 81.4781 87.1718 83.6169C86.218 82.1429 88.1545 84.5996 87.1718 83.6169C87.8655 84.3106 87.0273 83.1545 86.9117 83.1256C87.8366 83.3279 88.3279 87.2298 88.4724 87.8368C89.3684 91.4497 92.4033 92.8081 95.756 93.7908C97.7504 94.3978 101.161 96.3632 103.184 96.0742C104.918 95.843 108.329 93.6463 109.658 95.7852C111.855 97.5194 112.462 99.3113 115.15 100.265C117.867 101.219 120.699 101.913 123.561 102.433C129.11 103.502 134.949 104.196 140.585 103.56C145.73 102.982 150.47 101.219 155.817 101.45C162.927 101.739 170.76 105.323 177.581 107.289C179.315 107.78 194.403 112.462 194.576 111.884C195.183 113.532 197.987 121.047 197.987 122.521C197.987 119.081 197.987 125.7 197.987 122.521C197.987 125.44 201.917 126.307 202.669 128.937C203.565 132.088 200.357 132.174 198.622 133.504C194.605 136.654 191.252 144.487 189.056 149.054C187.003 153.331 184.778 157.58 183.419 162.147C182.581 165.008 183.246 168.217 182.523 170.847C181.945 172.957 181.367 175.067 180.789 177.205C176.598 192.524 172.436 207.872 168.274 223.19C143.995 216.514 129.746 212.467 105.641 205.213C82.4606 198.218 49.4242 188.044 26.3595 180.703C24.5097 180.125 22.6599 179.518 20.8101 178.94L20.7812 178.911Z" fill="#A3D3D8"></path>
  <path d="M87.1718 83.6169C85.8133 81.4781 88.3279 79.5127 87.1718 76.9692C86.218 74.8882 83.8768 73.7609 81.9114 72.8649C76.8533 70.5816 70.4079 69.0786 67.3731 63.9628C65.5811 65.986 65.0609 75.2928 64.3961 77.7785C63.0665 82.692 58.9334 86.1604 56.1298 90.2068C55.4072 91.5364 55.8407 92.5769 54.8291 94.051C53.3551 96.1898 52.17 98.5021 51.0139 100.814C49.0774 104.687 44.5685 111.913 45.6379 116.509C46.6784 121.018 41.6782 125.527 39.1636 128.966C34.8281 134.92 31.4464 140.18 28.8741 147.348C26.9954 152.58 25.9259 151.568 21.0991 151.713C17.2839 151.828 17.1105 154.863 18.3533 157.696C19.7407 160.875 22.3419 164.459 21.6772 168.13C20.1453 170.124 20.3765 172.292 20.7523 174.604C21.0702 176.049 21.0991 177.466 20.7812 178.911L20.8101 178.94C22.6599 179.518 24.5097 180.125 26.3595 180.703C49.4242 188.044 82.4606 198.218 105.641 205.213C129.746 212.467 143.995 216.514 168.274 223.19C172.436 207.872 176.598 192.524 180.789 177.205C181.367 175.067 181.945 172.957 182.523 170.847C183.246 168.217 182.581 165.008 183.419 162.147C184.778 157.58 187.003 153.331 189.056 149.054C191.252 144.487 194.605 136.654 198.622 133.504C200.357 132.174 203.565 132.088 202.669 128.937C201.917 126.307 197.987 125.44 197.987 122.521M87.1718 83.6169C86.218 82.1429 88.1545 84.5996 87.1718 83.6169ZM87.1718 83.6169C87.8655 84.3106 87.0273 83.1545 86.9117 83.1256C87.8366 83.3279 88.3279 87.2298 88.4724 87.8368C89.3684 91.4497 92.4033 92.8081 95.756 93.7908C97.7504 94.3978 101.161 96.3632 103.184 96.0742C104.918 95.843 108.329 93.6463 109.658 95.7852C111.855 97.5194 112.462 99.3113 115.15 100.265C117.867 101.219 120.699 101.913 123.561 102.433C129.11 103.502 134.949 104.196 140.585 103.56C145.73 102.982 150.47 101.219 155.817 101.45C162.927 101.739 170.76 105.323 177.581 107.289C179.315 107.78 194.403 112.462 194.576 111.884C195.183 113.532 197.987 121.047 197.987 122.521M197.987 122.521C197.987 119.081 197.987 125.7 197.987 122.521Z" stroke="#34317A" stroke-width="1.5" stroke-miterlimit="10"></path>
  <path d="M168.245 223.161C193.073 229.78 201.455 232.208 226.514 237.758C239.087 240.532 272.528 247.96 285.159 250.504C286.257 249.608 299.321 181.946 299.321 181.946C299.321 181.946 296.113 181.541 294.148 181.541C290.708 181.541 292.616 174.893 287.037 176.83C282.5 178.419 279.725 173.246 276.574 173.766C276.574 179.286 260.129 169.084 258.77 167.581C256.342 164.922 257.123 162.205 255.591 159.314C252.065 155.412 250.301 152.146 249.405 146.944C248.538 142.117 249.955 136.481 249.03 132.001C248.047 129.197 241.631 137.608 242.613 131.567C243.22 127.752 242.526 122.954 245.214 119.862C248.596 115.96 250.562 112.809 248.076 107.751C245.706 102.982 247.267 99.0801 244.694 94.8603C241.804 90.149 245.417 81.8249 240.07 79.0502C237.295 77.6051 239.318 75.5529 237.555 73.7898C234.983 71.2175 233.335 67.3733 231.803 64.1651C227.526 55.1762 231.746 43.9328 235.705 35.0596L219.115 30.7819C211.369 56.2167 203.652 81.6515 195.935 107.086C195.443 108.647 194.981 110.237 194.489 111.798C195.096 113.445 197.9 120.96 197.9 122.434C197.9 118.994 197.9 125.613 197.9 122.434C197.9 125.353 201.831 126.22 202.582 128.85C203.478 132.001 200.27 132.088 198.536 133.417C194.518 136.568 191.166 144.4 188.969 148.967C186.917 153.245 184.691 157.493 183.333 162.06C182.495 164.922 183.159 168.13 182.437 170.76C181.859 172.87 181.281 174.98 180.703 177.119C176.512 192.437 172.35 207.785 168.188 223.104L168.245 223.161Z" fill="#A3D3D8"></path>
  <path d="M197.9 122.434C197.9 120.96 195.096 113.445 194.489 111.798C194.981 110.237 195.443 108.647 195.935 107.086C203.652 81.6515 211.369 56.2167 219.115 30.7819L235.705 35.0596C231.746 43.9328 227.526 55.1762 231.803 64.1651C233.335 67.3733 234.983 71.2175 237.555 73.7898C239.318 75.5529 237.295 77.6051 240.07 79.0502C245.417 81.8249 241.804 90.149 244.694 94.8603C247.267 99.0801 245.706 102.982 248.076 107.751C250.562 112.809 248.596 115.96 245.214 119.862C242.526 122.954 243.22 127.752 242.613 131.567C241.631 137.608 248.047 129.197 249.03 132.001C249.955 136.481 248.538 142.117 249.405 146.944C250.301 152.146 252.065 155.412 255.591 159.314C257.123 162.205 256.342 164.922 258.77 167.581C260.129 169.084 276.574 179.286 276.574 173.766C279.725 173.246 282.5 178.419 287.037 176.83C292.616 174.893 290.708 181.541 294.148 181.541C296.113 181.541 299.321 181.946 299.321 181.946C299.321 181.946 286.257 249.608 285.159 250.504C272.528 247.96 239.087 240.532 226.514 237.758C201.455 232.208 193.073 229.78 168.245 223.161L168.188 223.104C172.35 207.785 176.512 192.437 180.703 177.119C181.281 174.98 181.859 172.87 182.437 170.76C183.159 168.13 182.495 164.922 183.333 162.06C184.691 157.493 186.917 153.245 188.969 148.967C191.166 144.4 194.518 136.568 198.536 133.417C200.27 132.088 203.478 132.001 202.582 128.85C201.831 126.22 197.9 125.353 197.9 122.434ZM197.9 122.434C197.9 118.994 197.9 125.613 197.9 122.434Z" stroke="#34317A" stroke-width="1.5" stroke-miterlimit="10"></path>
  <path d="M437.421 159.921L447.739 73.9343C420.079 69.8879 297.731 50.8118 235.734 35.1463C231.774 44.0485 227.526 55.2918 231.832 64.2518C233.364 67.46 235.012 71.3042 237.584 73.8765C239.347 75.6396 237.324 77.6918 240.099 79.1369C245.446 81.9116 241.833 90.2357 244.723 94.947C247.324 99.1379 245.764 103.04 248.105 107.838C250.59 112.896 248.654 116.046 245.243 119.948C242.555 123.041 243.249 127.839 242.642 131.654C241.659 137.666 248.076 129.255 249.059 132.088C249.955 136.568 248.567 142.175 249.434 147.031C250.359 152.233 252.093 155.47 255.62 159.401C257.151 162.291 256.371 165.008 258.799 167.667C260.157 169.17 276.603 179.373 276.603 173.853C279.754 173.332 282.528 178.506 287.066 176.916C292.645 174.951 290.737 181.628 294.176 181.628C296.113 181.628 299.35 182.032 299.35 182.032L302.818 166.8L433.605 187.697L437.421 160.008V159.921Z" fill="#A3D3D8" stroke="#34317A" stroke-width="1.5" stroke-miterlimit="10"></path>
  <path d="M600.695 337.589C568.179 338.948 462.451 331.317 461.497 331.231C461.873 327.155 462.624 318.773 463.029 314.698C463.318 311.605 463.607 308.513 463.896 305.391C463.896 305.131 460.399 304.813 460.081 304.784C455.514 304.177 421.004 299.293 421.004 299.293L428.201 244.174C428.201 244.174 467.336 247.18 486.903 248.712C494.852 249.319 502.829 249.955 510.777 250.562C512.425 250.677 511.847 250.706 513.899 251.891C517.887 254.175 522.338 255.331 526.761 256.4C533.871 258.134 542.542 263.915 549.797 261.516C557.861 258.828 571.185 261.603 578.758 264.869C578.931 266.458 579.22 268.048 579.682 269.58C580.549 272.499 584.712 276.921 584.48 279.927C584.48 286.084 588.093 293.541 589.481 299.524C591.648 308.859 590.088 316.75 597.516 323.716L600.695 337.589Z" fill="#A3D3D8" stroke="#34317A" stroke-width="1.5" stroke-miterlimit="10"></path>
  <path d="M578.815 167.436C580.781 152.493 578.295 139.429 576.966 124.515C576.387 117.954 574.046 112.058 572.139 106.508C571.936 105.063 568.526 91.4497 568.266 91.3919C567.023 90.5537 570.665 82.8654 570.665 82.8654C553.612 83.0967 530.403 80.6688 513.494 79.5705C492.713 78.2409 468.405 76.4489 447.711 73.9054L437.392 159.892C492.077 167.667 573.266 167.292 578.786 167.407L578.815 167.436Z" fill="#A3D3D8" stroke="#34317A" stroke-width="1.5" stroke-miterlimit="10"></path>
  <path d="M579.971 239.636C580.173 223.74 580.376 207.843 580.549 191.946C580.665 183.449 577.659 176.367 578.844 167.436C573.323 167.321 492.134 167.696 437.45 159.921L433.634 187.611C431.438 207.005 430.484 224.607 428.258 244.203C428.258 244.203 467.393 247.209 486.961 248.741C494.909 249.348 502.886 249.984 510.835 250.591C512.482 250.706 511.904 250.735 513.956 251.92C517.945 254.204 522.396 255.36 526.818 256.429C533.928 258.163 542.599 263.944 549.854 261.545C557.918 258.857 571.242 261.632 578.815 264.898C578.497 262.036 578.584 259.146 578.815 256.285C579.104 252.787 580.896 243.336 580 239.694L579.971 239.636Z" fill="#A3D3D8" stroke="#34317A" stroke-width="1.5" stroke-miterlimit="10"></path>
  <path d="M697.925 105.034C689.052 105.237 678.704 112.058 670.062 107.52C666.594 105.699 654.166 106.711 652.518 102.895C651.969 101.595 654.166 97.317 653.356 95.0915C652.865 93.7041 651.651 93.9065 650.611 94.6001C645.524 98.0107 644.714 98.0974 638.616 96.2187C622.892 91.363 607.978 83.2412 591.272 82.3452C584.48 81.9694 577.457 82.4897 570.664 82.8654C570.664 82.8654 567.023 90.5537 568.265 91.3919C568.526 91.4497 571.936 105.034 572.138 106.508C574.046 112.058 576.358 117.954 576.965 124.515C578.295 139.429 580.78 152.493 578.815 167.436C577.63 176.367 580.636 183.449 580.52 191.946C580.318 207.843 580.145 223.74 579.942 239.636C614.337 239.81 648.732 239.983 683.127 240.186C682.462 237.469 676.941 227.468 677.49 225.965C677.866 224.896 665.467 213.161 663.097 211.86C657.779 208.97 649.512 205.646 651.333 197.785C653.299 189.316 655.408 182.813 651.362 174.055C664.802 174.431 662.49 158.823 662.894 150.123C665.64 149.198 665.785 144.487 667.779 141.481C670.554 137.319 674.456 134.082 677.78 130.353C682.346 125.266 687.693 121.943 693.503 118.33C698.33 115.353 704.775 112.665 708.764 108.56C710.614 106.653 696.335 105.034 695.468 105.063C697.087 105.034 698.705 105.005 700.324 104.947C699.515 104.947 698.705 104.947 697.896 105.005C689.485 105.179 706.538 104.832 697.896 105.005L697.925 105.034Z" fill="#A3D3D8"></path>
  <path d="M697.896 105.005C698.705 104.947 699.515 104.947 700.324 104.947C698.705 105.005 697.087 105.034 695.468 105.063C696.335 105.034 710.614 106.653 708.764 108.56C704.775 112.665 698.33 115.353 693.503 118.33C687.693 121.943 682.346 125.266 677.78 130.353C674.456 134.082 670.554 137.319 667.779 141.481C665.785 144.487 665.64 149.198 662.894 150.123C662.49 158.823 664.802 174.431 651.362 174.055C655.408 182.813 653.299 189.316 651.333 197.785C649.512 205.646 657.779 208.97 663.097 211.86C665.467 213.161 677.866 224.896 677.49 225.965C676.941 227.468 682.462 237.469 683.127 240.185C648.732 239.983 614.337 239.81 579.942 239.636C580.145 223.74 580.318 207.843 580.52 191.946C580.636 183.449 577.63 176.367 578.815 167.436C580.78 152.493 578.295 139.429 576.965 124.515C576.358 117.954 574.046 112.058 572.138 106.508C571.936 105.034 568.526 91.4497 568.265 91.3919C567.023 90.5537 570.664 82.8654 570.664 82.8654C577.457 82.4897 584.48 81.9694 591.272 82.3452C607.978 83.2412 622.892 91.363 638.616 96.2187C644.714 98.0974 645.524 98.0107 650.611 94.6001C651.651 93.9065 652.865 93.7041 653.356 95.0915C654.166 97.317 651.969 101.595 652.518 102.895C654.166 106.711 666.594 105.699 670.062 107.52C678.704 112.058 689.052 105.237 697.925 105.034L697.896 105.005ZM697.896 105.005C689.485 105.179 706.538 104.832 697.896 105.005Z" stroke="#34317A" stroke-width="1.5" stroke-miterlimit="10"></path>
  <path d="M597.515 323.716C590.087 316.75 591.619 308.859 589.48 299.524C588.093 293.512 584.48 286.055 584.48 279.927C584.711 276.921 580.52 272.499 579.682 269.58C579.219 268.019 578.93 266.458 578.757 264.869C578.439 262.007 578.526 259.117 578.757 256.256C579.046 252.758 580.838 243.307 579.942 239.665C614.337 239.839 648.732 240.012 683.126 240.214C684.051 245.995 684.022 257.932 689.138 262.903C692.375 266.921 696.913 270.158 701.538 272.413C701.538 275.332 703.734 278.424 705.18 280.766C708.619 286.315 709.255 288.569 703.041 293.627C697.433 297.298 691.364 301.345 691.393 308.31C691.451 317.126 683.126 321.924 683.647 331.086C678.82 328.918 679.485 323.86 673.068 322.617C666.594 321.375 659.773 321.981 653.24 322.473C634.742 323.918 616.042 323.456 597.515 323.745V323.716Z" fill="#A3D3D8" stroke="#34317A" stroke-width="1.5" stroke-miterlimit="10"></path>
  <path d="M838.164 471.613C847.037 470.659 863.512 468.896 872.385 467.914C871.113 478.868 887.27 491.846 893.918 498.638C898.687 503.522 903.456 508.205 908.63 512.627C911.433 515.026 914.439 517.483 916.058 520.864C915.826 520.402 915.595 519.911 915.393 519.419C917.59 523.986 920.191 527.714 923.746 531.327C925.278 532.888 925.393 534.796 925.422 536.732C925.422 538.669 925.364 540.634 926.492 542.368C936.752 537.83 929.584 550.692 929.671 554.161C929.758 557.311 930.394 559.161 927.012 560.144C924.989 560.722 924.353 562.08 924.353 564.132C924.382 568.728 924.989 571.85 923.226 576.127C922.561 577.746 924.266 584.48 924.7 585.665C920.364 587.399 917.532 584.827 913.312 584.827C911.491 584.827 909.786 599.019 906.982 593.989C904.467 589.509 898.947 591.619 893.744 591.851C877.732 592.486 861.691 593.151 845.649 593.787C841.401 593.961 840.967 587.226 838.771 587.371C838.51 579.133 833.886 567.572 836.401 559.334C838.25 553.294 841.343 548.814 838.164 542.86C835.851 538.553 833.568 534.275 831.256 529.998C828.568 524.997 828.481 516.962 827.354 511.471C825.244 500.921 822.961 483.839 820.851 473.29C826.602 472.769 832.354 472.191 838.106 471.584L838.164 471.613Z" fill="#A3D3D8" stroke="#34317A" stroke-width="1.5" stroke-miterlimit="10"></path>
  <path d="M913.283 584.856C911.462 584.856 909.757 599.047 906.953 594.018C904.439 589.538 898.918 591.648 893.716 591.879C877.703 592.515 861.662 593.18 845.621 593.816C841.372 593.989 840.939 587.255 838.742 587.399C832.846 587.804 826.978 588.209 821.082 588.613C807.498 589.538 793.913 590.463 780.357 591.388C781.109 597.891 782.67 602.487 781.976 608.325C780.964 616.967 792.786 600.955 792.901 600.955C798.711 601.851 785.907 609.482 793.306 611.707C796.514 612.69 806.602 611.794 802.064 606.331C802.237 605.406 806.284 602.834 806.284 606.765C806.284 609.799 810.185 608.846 811.775 608.383C818.134 606.562 818.278 611.823 823.568 611.909C824.03 611.909 824.724 604.048 827.412 604.973C829.551 605.724 832.007 612.343 832.412 614.337C833.221 618.355 830.851 628.442 838.135 624.627C842.384 622.372 846.141 618.788 851.026 621.447C852.008 621.968 861.691 602.545 871.114 611.765C875.738 616.303 889.351 628.587 887.82 635.87C894.93 635.957 895.045 628.789 898.6 638.298C902.589 648.934 900.248 654.455 896.866 664.571C895.97 667.201 901.606 679.138 904.265 675.121C905.797 672.779 899.15 665.409 902.213 664.224C904.699 663.241 904.872 669.976 906.086 670.901C907.416 671.912 906.693 667.172 907.878 667.172C910.248 667.172 909.439 677.317 910.537 678.994C910.653 679.167 903.774 682.433 903.543 682.838C906.52 686.017 902.502 687.144 905.248 690.555C907.329 693.156 909.786 695.989 912.676 697.665C914.613 698.792 921.289 693.561 921.289 693.561C920.971 692.347 920.827 704.371 921.578 703.012C919.179 707.377 915.335 698.619 913.543 701.423C912.416 703.186 915.364 712.117 918.862 711.279C920.393 710.903 926.405 705.729 926.926 705.845C930.105 706.596 929.96 713.099 930.538 715.469C931.781 720.614 937.562 720.239 936.724 724.054C936.175 726.597 948.43 720.701 947.707 726.077C947.562 727.262 941.868 735.297 941.377 734.719C943.025 736.627 947.302 731.713 947.794 732.58C948.979 734.661 943.227 735.586 944.21 737.58C945.799 740.702 950.424 733.939 952.505 735.933C956.436 739.719 944.152 741.078 942.938 742.783C947.1 747.697 952.967 745.5 957.418 742.321C965.078 736.887 963.286 737.031 962.939 728.909C962.737 724.256 964.442 717.522 969.384 716.163C969.587 716.105 969.095 702.637 968.922 701.191C965.511 702.347 964.933 698.185 967.303 697.318C971.552 695.786 964.413 694.052 963.806 693.532C962.419 692.347 958.69 677.491 959.586 676.103C959.846 675.785 965.714 689.63 966.783 689.11C968.951 688.069 957.968 661.71 955.453 662.172C954.47 662.345 955.684 668.791 956.089 668.993C949.643 665.814 956.002 654.802 951.146 653.299C949.499 654.513 949.268 656.276 950.395 658.646C948.921 657.172 939.787 641.766 942.071 641.073C943.603 640.61 946.753 646.044 948.025 644.917C953.054 640.263 939.527 631.795 936.55 632.142C933.804 629.049 936.695 628.297 935.105 623.731C930.625 611.042 924.787 599.423 924.787 585.723C920.451 587.457 917.619 584.885 913.399 584.885L913.283 584.856Z" fill="#A3D3D8" stroke="#34317A" stroke-width="1.5" stroke-miterlimit="10"></path>
  <path d="M820.879 473.319C822.989 483.868 825.272 500.95 827.382 511.5C828.481 516.991 828.596 525.026 831.284 530.027C833.596 534.304 835.88 538.611 838.192 542.889C841.371 548.843 838.279 553.323 836.429 559.363C833.914 567.601 838.539 579.162 838.799 587.399C832.903 587.804 827.035 588.209 821.139 588.613C807.555 589.538 793.97 590.463 780.415 591.388C781.166 597.891 782.727 602.487 782.033 608.325C780.415 613.586 772.697 615.031 770.992 615.089C766.83 615.262 772.177 611.678 773.362 611.1C778.305 608.701 774.143 604.857 772.466 601.649C770.587 598.094 770.009 593.671 769.518 589.712C763.015 597.4 777.437 611.736 761.223 612.285C758.304 568.352 759.72 520.72 761.281 476.671C769.72 476.527 778.131 476.209 786.571 475.775C798.045 475.197 809.491 474.359 820.908 473.319H820.879Z" fill="#A3D3D8" stroke="#34317A" stroke-width="1.5" stroke-miterlimit="10"></path>
  <path d="M694.515 537.339C704.92 537.252 698.388 565.664 696.076 572.746C694.862 576.503 684.543 594.192 688.59 594.596C695.209 595.29 701.972 595.088 708.62 595.059C715.094 595.059 721.539 594.972 728.014 594.77C729.777 594.712 727.464 608.875 733.852 612.227C734.864 612.776 735.644 616.1 735.875 616.707C738.014 615.638 744.893 612.574 747.726 612.719C749.604 613.037 751.396 612.69 753.073 611.649C756.714 609.481 757.553 612.401 761.166 612.256C758.246 568.323 759.663 520.691 761.223 476.642C746.685 476.903 732.147 476.758 717.608 476.093C712.579 485.718 702.926 498.927 698.793 508.956C696.336 514.881 698.157 516.905 700.093 522.165C701.885 527.05 695.671 532.512 694.486 537.31L694.515 537.339Z" fill="#A3D3D8" stroke="#34317A" stroke-width="1.5" stroke-miterlimit="10"></path>
  <path d="M979.587 484.388C978.691 485.4 975.916 490.256 975.078 491.267C963.43 509.159 958.488 531.443 933.718 531.443C936.203 533.929 941.146 533.929 943.631 536.385C938.689 541.328 930.163 537.57 925.393 536.703C925.393 534.767 925.278 532.859 923.717 531.298C920.162 527.686 917.561 523.957 915.364 519.39C915.595 519.882 915.826 520.344 916.029 520.835C914.41 517.454 911.404 514.997 908.601 512.598C903.398 508.176 898.658 503.493 893.889 498.609C887.241 491.817 871.084 478.81 872.356 467.885C878.802 467.191 882.964 460.688 888.975 458.925C896.837 456.613 907.416 457.884 915.624 457.422C921.838 457.075 926 465.948 932.012 464.85C938.342 463.694 948.4 459.098 953.661 463.405C961.522 469.821 969.413 476.238 977.275 482.654C978.055 483.29 978.807 483.897 979.529 484.36L979.587 484.388Z" fill="#A3D3D8" stroke="#34317A" stroke-width="1.5" stroke-miterlimit="10"></path>
  <path d="M884.987 387.389C884.264 381.089 874.842 376.204 880.073 367.215C877.732 361.03 884.322 360.192 885.189 355.509C885.507 353.833 884.611 350.047 887.068 349.555C888.542 349.266 891.346 350.827 892.27 348.775C893.947 345.017 890.132 341.433 895.623 339.988C903.398 337.965 903.427 322.184 910.422 320.132C910.248 321.721 911.202 323.427 911.086 325.016C918.601 323.745 926.116 322.473 933.631 321.172C934.411 327.473 935.192 333.774 936.001 340.075C939.961 339.641 941.897 331.78 944.123 329.005C946.348 326.201 949.21 323.947 952.62 322.82C956.146 321.664 960.944 320.796 964.673 320.218C969.182 319.496 968.604 323.542 970.078 326.317C969.269 324.814 970.425 327.184 970.078 326.317C969.529 324.987 970.511 327.704 971.407 327.704C967.303 331.866 961.725 334.872 958.661 339.988C956.349 343.832 951.753 347.561 950.106 351.492C948.689 354.931 946.695 361.521 940.972 358.168C935.799 355.133 936.232 358.313 936.059 362.446C935.799 368.487 930.538 366.608 926.954 369.18C923.197 371.897 922.388 375.684 921.231 379.846C919.96 384.412 916.376 385.511 911.925 385.366C909.439 386.407 907.387 392.245 903.976 385.742C902.184 387.447 899.525 395.974 896.548 395.598C894.005 395.28 887.79 390.54 884.987 387.274V387.389Z" fill="#A3D3D8"></path>
  <path d="M970.078 326.317C968.604 323.542 969.182 319.496 964.673 320.218C960.944 320.796 956.146 321.664 952.62 322.82C949.21 323.947 946.348 326.201 944.123 329.005C941.897 331.78 939.961 339.641 936.001 340.075C935.192 333.774 934.411 327.473 933.631 321.172C926.116 322.473 918.601 323.745 911.086 325.016C911.202 323.427 910.248 321.721 910.422 320.132C903.427 322.184 903.398 337.965 895.623 339.988C890.132 341.433 893.947 345.017 892.27 348.775C891.346 350.827 888.542 349.266 887.068 349.555C884.611 350.047 885.507 353.833 885.189 355.509C884.322 360.192 877.732 361.03 880.073 367.215C874.842 376.204 884.264 381.089 884.987 387.389V387.274C887.79 390.54 894.005 395.28 896.548 395.598C899.525 395.974 902.184 387.447 903.976 385.742C907.387 392.245 909.439 386.407 911.925 385.366C916.376 385.511 919.96 384.412 921.231 379.846C922.388 375.684 923.197 371.897 926.954 369.18C930.538 366.608 935.799 368.487 936.059 362.446C936.232 358.313 935.799 355.133 940.972 358.168C946.695 361.521 948.689 354.931 950.106 351.492C951.753 347.561 956.349 343.832 958.661 339.988C961.725 334.872 967.303 331.866 971.407 327.704C970.511 327.704 969.529 324.987 970.078 326.317ZM970.078 326.317C969.269 324.814 970.425 327.184 970.078 326.317Z" stroke="#34317A" stroke-width="1.5" stroke-miterlimit="10"></path>
  <path d="M971.378 327.791C970.482 327.791 969.499 325.074 970.048 326.404C969.239 324.901 970.395 327.271 970.048 326.404C968.545 323.629 969.152 319.583 964.644 320.305C960.944 320.883 956.146 321.75 952.591 322.906C949.18 324.034 946.319 326.288 944.093 329.092C941.868 331.866 939.931 339.728 935.972 340.162C935.191 333.861 934.411 327.56 933.602 321.259L1015.98 307.299C1020.46 309.524 1023.37 331.375 1024.91 336.896C1025.2 337.965 1026.96 346.578 1027.97 346.405C1030.22 346.029 1042.16 342.821 1042.6 345.075C1042.48 344.439 1042.74 345.711 1042.6 345.075C1043.81 350.914 1034.56 361.434 1029.96 364.238C1028.92 364.874 1024.13 365.278 1026.01 362.59C1027.85 359.989 1027.33 360.683 1025.08 358.717C1022.42 356.376 1025.74 355.422 1023.9 353.197C1021.93 350.856 1020.69 355.914 1019.68 355.22C1016.64 352.243 1013.11 347.994 1013.23 344.902C1013.23 343.225 1017.36 345.74 1018.09 345.046C1020.54 342.676 1012.91 341.289 1012.91 341.289C1009.47 339.381 1012.36 337.531 1013.61 335.277C1015.77 331.317 1014.88 326.693 1012.74 322.588C1010.54 318.398 1011.06 320.103 1009.18 322.01C1008.92 322.01 1007.88 320.161 1007.39 320.912C1005.72 321.432 1005.11 322.878 1005.25 324.178C1005.34 324.438 1006.93 325.826 1006.26 326.144C1005.8 326.375 1003.03 325.479 1003.08 326.49C1002.97 327.791 1006.21 329.265 1005.4 331.491C1012.13 333.745 1005.45 333.861 1005.45 337.474C1005.45 338.977 1006.26 340.826 1006.67 342.214C1006.96 343.168 1011.5 351.203 1011.7 353.399C1011.24 354.469 1006.44 350.538 1004.44 350.856C1006.15 353.457 1012.88 360.22 1012.51 361.319C1008.37 361.319 990.338 354.931 988.46 351.029C986.783 347.532 990.917 344.295 989.703 341.058C988.373 337.503 983.893 334.728 980.945 332.705C979.066 331.404 974.008 328.716 971.378 327.791Z" fill="#A3D3D8"></path>
  <path d="M970.048 326.404C969.499 325.074 970.482 327.791 971.378 327.791C974.008 328.716 979.066 331.404 980.945 332.705C983.893 334.728 988.373 337.503 989.703 341.058C990.917 344.295 986.783 347.532 988.46 351.029C990.338 354.931 1008.37 361.319 1012.51 361.319C1012.88 360.22 1006.15 353.457 1004.44 350.856C1006.44 350.538 1011.24 354.469 1011.7 353.399C1011.5 351.203 1006.96 343.168 1006.67 342.214C1006.26 340.826 1005.45 338.977 1005.45 337.474C1005.45 333.861 1012.13 333.745 1005.4 331.491C1006.21 329.265 1002.97 327.791 1003.08 326.49C1003.03 325.479 1005.8 326.375 1006.26 326.144C1006.93 325.826 1005.34 324.438 1005.25 324.178C1005.11 322.878 1005.72 321.432 1007.39 320.912C1007.88 320.161 1008.92 322.01 1009.18 322.01C1011.06 320.103 1010.54 318.398 1012.74 322.588C1014.88 326.693 1015.77 331.317 1013.61 335.277C1012.36 337.531 1009.47 339.381 1012.91 341.289C1012.91 341.289 1020.54 342.676 1018.09 345.046C1017.36 345.74 1013.23 343.225 1013.23 344.902C1013.11 347.994 1016.64 352.243 1019.68 355.22C1020.69 355.914 1021.93 350.856 1023.9 353.197C1025.74 355.422 1022.42 356.376 1025.08 358.717C1027.33 360.683 1027.85 359.989 1026.01 362.59C1024.13 365.278 1028.92 364.874 1029.96 364.238C1034.56 361.434 1043.81 350.914 1042.6 345.075M970.048 326.404C969.239 324.901 970.395 327.271 970.048 326.404ZM970.048 326.404C968.545 323.629 969.152 319.583 964.644 320.305C960.944 320.883 956.146 321.75 952.591 322.906C949.18 324.034 946.319 326.288 944.093 329.092C941.868 331.866 939.931 339.728 935.972 340.162C935.191 333.861 934.411 327.56 933.602 321.259L1015.98 307.299C1020.46 309.524 1023.37 331.375 1024.91 336.896C1025.2 337.965 1026.96 346.578 1027.97 346.405C1030.22 346.029 1042.16 342.821 1042.6 345.075M1042.6 345.075C1042.48 344.439 1042.74 345.711 1042.6 345.075Z" stroke="#34317A" stroke-width="1.5" stroke-miterlimit="10"></path>
  <path d="M1028.32 397.592C991.899 403.546 955.452 409.529 919.034 415.483C916.086 415.975 906.693 417.507 903.773 417.998C895.074 419.096 873.916 421.062 857.239 422.536C858.945 416.177 868.425 415.079 868.367 408.344C872.124 409.703 872.153 405.483 873.367 402.882C875.304 398.691 879.784 396.899 882.674 393.546C884.64 391.291 885.189 389.268 884.986 387.418C887.79 390.684 893.975 395.396 896.548 395.742C899.525 396.118 902.184 387.592 903.976 385.886C907.386 392.39 909.438 386.58 911.924 385.511C916.375 385.655 919.959 384.557 921.231 379.99C922.387 375.828 923.196 372.013 926.954 369.325C930.538 366.753 935.827 368.631 936.058 362.59C936.232 358.457 935.769 355.278 940.972 358.313C946.695 361.666 948.66 355.047 950.105 351.636C951.753 347.705 956.377 343.948 958.661 340.133C961.724 335.017 967.303 332.011 971.407 327.849C974.066 328.803 979.095 331.462 980.974 332.762C983.922 334.786 988.431 337.56 989.731 341.115C990.916 344.353 986.783 347.59 988.489 351.087C990.367 354.989 1008.37 361.405 1012.54 361.377C1013.52 363.747 1012.71 368.4 1013.32 370.886C1013.66 372.331 1007.28 371.29 1006.64 371.233C999.27 370.452 1006.52 374.759 1009.56 375.366C1010.86 375.626 1012.74 376.059 1012.83 377.707C1012.88 378.863 1013.29 381.522 1012.42 381.84C1009.59 382.938 1007.13 381.493 1004.44 380.886C1000.69 380.077 996.726 381.146 993.576 383.198C1000.08 382.505 1023.4 397.968 1026.5 388.401C1028.09 389.413 1028.64 395.193 1028.35 397.621L1028.32 397.592Z" fill="#A3D3D8" stroke="#34317A" stroke-width="1.5" stroke-miterlimit="10"></path>
  <path d="M1021.27 262.441C1018.06 267.961 1015.48 275.679 1019.7 281.922C1021.96 285.217 1034.01 294.668 1024.47 297.876C1022.07 298.686 1020.69 299.321 1019.39 301.489C1017.94 303.917 1019.53 309.409 1022.71 309.958C1025.49 310.449 1028.32 311.027 1031.15 311.143C1032.74 311.201 1031.32 317.097 1032.8 316.923C1035.25 316.634 1035.28 309.611 1035.37 307.935C1035.49 305.622 1036.79 306.692 1038 304.784C1039.73 302.067 1036.9 300.391 1037.88 298.686C1038.55 297.529 1039.94 297.125 1040.66 296.026C1042.25 293.714 1040.31 290.159 1040.8 287.5C1042.22 279.956 1037.83 277.442 1034.33 276.893C1033.23 276.719 1038.93 265.158 1039.3 263.25C1039.53 261.95 1023.92 258.423 1021.73 257.47C1022.22 259.175 1022.39 260.909 1021.21 262.412C1021.01 262.759 1021.96 261.458 1021.21 262.412C1020.83 263.048 1021.96 261.429 1021.21 262.412L1021.27 262.441Z" fill="#A3D3D8"></path>
  <path d="M1021.21 262.412C1022.39 260.909 1022.22 259.175 1021.73 257.47C1023.92 258.423 1039.53 261.95 1039.3 263.25C1038.93 265.158 1033.23 276.719 1034.33 276.893C1037.83 277.442 1042.22 279.956 1040.8 287.5C1040.31 290.159 1042.25 293.714 1040.66 296.026C1039.94 297.125 1038.55 297.529 1037.88 298.686C1036.9 300.391 1039.73 302.067 1038 304.784C1036.79 306.692 1035.49 305.622 1035.37 307.935C1035.28 309.611 1035.25 316.634 1032.8 316.923C1031.32 317.097 1032.74 311.201 1031.15 311.143C1028.32 311.027 1025.49 310.449 1022.71 309.958C1019.53 309.409 1017.94 303.917 1019.39 301.489C1020.69 299.321 1022.07 298.686 1024.47 297.876C1034.01 294.668 1021.96 285.217 1019.7 281.922C1015.48 275.679 1018.06 267.961 1021.27 262.441L1021.21 262.412ZM1021.21 262.412C1021.01 262.759 1021.96 261.458 1021.21 262.412ZM1021.21 262.412C1020.83 263.048 1021.96 261.429 1021.21 262.412Z" stroke="#34317A" stroke-width="1.5" stroke-miterlimit="10"></path>
  <path d="M1042.6 345.075C1042.16 342.821 1030.22 346.029 1027.97 346.405C1026.96 346.578 1025.2 337.936 1024.91 336.896C1023.37 331.375 1020.46 309.524 1015.98 307.299L1019.44 301.489C1018 303.917 1019.59 309.409 1022.77 309.958C1024.99 313.657 1030.11 322.588 1030.2 323.6C1030.75 330.537 1039.59 330.797 1040.8 334.525C1041.06 335.335 1037.1 339.612 1037.45 340.826C1038.23 341.751 1039.1 341.809 1040.05 340.971C1039.24 341.925 1040.86 340.017 1040.05 340.971C1041.53 339.237 1042.45 343.717 1042.62 345.075H1042.6Z" fill="#A3D3D8"></path>
  <path d="M1040.05 340.971C1039.1 341.809 1038.23 341.751 1037.45 340.826C1037.1 339.612 1041.06 335.335 1040.8 334.525C1039.59 330.797 1030.75 330.537 1030.2 323.6C1030.11 322.588 1024.99 313.657 1022.77 309.958C1019.59 309.409 1018 303.917 1019.44 301.489L1015.98 307.299C1020.46 309.524 1023.37 331.375 1024.91 336.896C1025.2 337.936 1026.96 346.578 1027.97 346.405C1030.22 346.029 1042.16 342.821 1042.6 345.075H1042.62C1042.45 343.717 1041.53 339.237 1040.05 340.971ZM1040.05 340.971C1039.24 341.925 1040.86 340.017 1040.05 340.971Z" stroke="#34317A" stroke-width="1.5" stroke-miterlimit="10"></path>
  <path d="M772.293 281.893C778.825 281.488 814.55 275.997 816.313 280.823C818.712 301.374 824.232 332.618 825.591 353.284C823.307 354.469 825.244 360.192 821.92 362.677C817.96 365.654 812.786 365.885 812.815 372.013C812.815 377.505 809.983 382.129 806.023 385.8C799.202 392.13 800.156 383.141 794.491 382.071C791.629 382.967 795.098 391.262 790.878 392.014C789.201 393.69 787.438 391.262 785.878 390.944C783.536 391.783 781.282 392.881 778.739 392.621C775.906 392.361 773.565 391.06 771.021 392.997C769.056 394.5 765.327 393.315 764.634 393.979C763.449 396.031 763.478 398.344 760.385 398.43C758.217 398.806 757.292 398.835 757.177 401.841C758.073 391.494 765.53 374.701 767.033 363.255C766.657 360.394 765.732 358.602 765.472 358.139L760.645 283.887C760.905 284.118 761.165 284.292 761.426 284.494C762.495 285.419 763.593 285.824 764.72 285.91C766.195 286.142 767.553 285.795 768.709 285.246C769.172 285.043 772.12 282.037 772.293 281.893Z" fill="#A3D3D8" stroke="#34317A" stroke-width="1.5" stroke-miterlimit="10"></path>
  <path d="M910.393 320.161C903.398 322.213 903.369 337.994 895.594 340.017C890.103 341.462 893.947 345.046 892.242 348.804C891.317 350.856 888.513 349.295 887.039 349.584C884.582 350.047 885.478 353.862 885.16 355.538C884.293 360.22 877.703 361.059 880.045 367.244C875.42 367.822 871.663 362.359 868.136 360.22C865.13 358.371 855.448 360.307 852.153 361.434C846.112 363.487 833.944 355.22 828.337 353.399C827.036 352.966 826.169 352.966 825.562 353.284C824.204 332.618 818.654 301.374 816.284 280.823C825.938 280.014 835.591 279.176 845.245 278.367C847.991 278.135 849.205 277.991 849.927 277.442C852.731 277.182 860.679 278.396 860.766 279.927C860.911 282.095 855.361 281.286 855.419 282.847C855.621 287.384 874.322 272.759 877.299 275.303C882.299 279.609 895.219 260.129 902.647 263.077L910.306 320.218L910.393 320.161Z" fill="#A3D3D8" stroke="#34317A" stroke-width="1.5" stroke-miterlimit="10"></path>
  <path d="M1015.95 307.299L933.573 321.259C926.058 322.531 918.543 323.802 911.028 325.103C911.173 323.513 910.19 321.808 910.363 320.218L902.704 263.077C905.912 261.458 913.803 256.111 916.664 253.712C916.144 255.446 916.751 257.065 917.271 259.811C944.903 254.059 972.563 248.336 1000.19 242.584C1007.68 241.024 1010.4 248.365 1015.37 252.238C1016.93 253.452 1020.46 256.516 1021.79 257.527C1022.28 259.233 1022.45 260.967 1021.26 262.47C1021.06 262.817 1022.02 261.516 1021.26 262.47C1020.89 263.106 1022.02 261.487 1021.26 262.47C1018.06 267.99 1015.48 275.708 1019.7 281.951C1021.96 285.246 1034.01 294.697 1024.47 297.905C1022.07 298.714 1020.69 299.35 1019.39 301.518L1015.92 307.328L1015.95 307.299Z" fill="#A3D3D8"></path>
  <path d="M1021.26 262.47C1022.45 260.967 1022.28 259.233 1021.79 257.527C1020.46 256.516 1016.93 253.452 1015.37 252.238C1010.4 248.365 1007.68 241.024 1000.19 242.584C972.563 248.336 944.903 254.059 917.271 259.811C916.751 257.065 916.144 255.446 916.664 253.712C913.803 256.111 905.912 261.458 902.704 263.077L910.363 320.218C910.19 321.808 911.173 323.513 911.028 325.103C918.543 323.802 926.058 322.531 933.573 321.259L1015.95 307.299L1015.92 307.328L1019.39 301.518C1020.69 299.35 1022.07 298.714 1024.47 297.905C1034.01 294.697 1021.96 285.246 1019.7 281.951C1015.48 275.708 1018.06 267.99 1021.26 262.47ZM1021.26 262.47C1021.06 262.817 1022.02 261.516 1021.26 262.47ZM1021.26 262.47C1020.89 263.106 1022.02 261.487 1021.26 262.47Z" stroke="#34317A" stroke-width="1.5" stroke-miterlimit="10"></path>
  <path d="M849.985 277.413C849.263 277.991 848.02 278.106 845.303 278.338C835.649 279.147 825.996 279.985 816.342 280.794C814.579 275.968 778.854 281.459 772.322 281.864C781.571 270.592 785.04 258.684 783.855 244.174C783.045 233.913 775.068 227.092 775.964 216.022C776.369 211.08 775.386 199.663 779.201 196.079C780.415 194.952 788.537 179.315 795.069 192.755C796.659 189.287 796.312 185.761 796.919 182.148C797.468 179.055 801.139 177.408 801.543 175.124C801.977 172.697 803.422 165.789 802.208 163.563C806.428 162.841 813.798 168.506 814.926 168.968C817.267 169.893 819.579 169.748 822.036 170.095C828.857 171.049 837.701 174.315 836.401 182.813C836.256 183.709 833.163 180.616 832.932 181.367C831.111 187.582 838.279 193.42 836.661 200.155C835.823 203.536 834.059 206.658 834.638 210.271C832.817 212.641 831.285 211.369 829.146 213.045C825.562 215.849 828.655 225.416 833.51 224.289C837.123 223.451 839.638 216.138 838.597 212.959C843.8 214.288 846.777 205.993 851.546 210.878C855.13 214.577 856.691 220.387 858.02 225.214C858.887 228.422 865.015 254.204 858.772 251.978C854.581 250.475 857.876 259.435 857.384 260.967C856.228 264.753 854.003 268.25 852.413 271.863C850.939 275.216 850.881 276.69 849.927 277.413H849.985Z" fill="#A3D3D8" stroke="#34317A" stroke-width="1.5" stroke-miterlimit="10"></path>
  <path d="M662.924 150.094C662.519 158.794 664.802 174.431 651.391 174.026C655.409 182.784 653.299 189.258 651.363 197.756C649.542 205.617 657.808 208.941 663.126 211.831C665.496 213.132 677.896 224.867 677.52 225.936C676.971 227.439 682.52 237.44 683.156 240.157C684.081 245.937 684.052 257.874 689.168 262.846C690.266 264.204 691.509 265.476 692.839 266.632C697.55 266.748 708.562 266.141 712.406 266.054C722.58 265.765 732.783 265.505 742.957 265.216C745.616 265.129 748.275 265.013 750.963 265.013C752.032 265.013 751.368 250.041 750.79 247.874C748.564 239.781 748.535 233.133 749.344 224.896C749.633 222.063 749.894 218.942 751.136 216.34C752.235 214.028 754.027 212.641 754.894 210.039C756.541 205.097 758.218 199.808 759.46 194.75C760.067 192.235 762.177 183.073 761.195 182.437C760.299 181.859 757.755 187.842 756.628 191.108C755.298 194.981 753.738 197.524 750.616 200.241C747.437 203.016 746.367 205.444 745.24 209.346C745.096 209.895 743.13 215.271 741.569 213.912C740.095 212.641 744.315 205.704 745.009 204.432C746.02 202.554 746.165 200.646 747.119 198.738C747.812 197.322 749.576 191.888 750.154 191.021C746.974 186.599 748.217 177.87 743.795 175.096C735.875 169.257 729.257 163.852 719.372 161.251C715.643 160.268 715.239 158.361 711.221 158.534C707.695 158.678 705.643 157.176 702.637 155.268C699.746 153.418 698.677 152.84 698.561 151.568C693.648 150.123 691.365 145.556 689.081 142.001C687.52 139.573 682.838 143.736 681.277 144.4C678.127 145.73 674.774 146.424 671.508 147.377C670.381 147.695 664.224 149.516 662.866 150.123L662.924 150.094Z" fill="#A3D3D8" stroke="#34317A" stroke-width="1.5" stroke-miterlimit="10"></path>
  <path d="M698.647 151.568C698.763 152.869 699.804 153.418 702.723 155.268C705.729 157.176 707.781 158.678 711.307 158.534C715.325 158.361 715.729 160.268 719.458 161.251C729.343 163.881 735.961 169.257 743.881 175.096C748.303 177.841 747.06 186.599 750.24 191.021C752.147 184.662 754.402 178.217 757.726 172.408C759.055 170.066 761.656 165.933 764.518 165.095C769.027 163.737 767.148 176.743 769.316 175.009C770.905 173.737 770.645 170.731 771.455 167.725C771.859 166.511 773.622 163.881 776.195 162.869C781.657 160.702 786.398 155.384 792.409 155.239C796.86 155.123 799.549 159.719 801.63 158.794C802.121 158.563 802.554 157.754 802.93 156.077C804.289 149.632 818.567 155.037 820.503 153.476C821.081 153.013 820.995 152.204 819.694 150.99C814.665 146.337 811.572 146.192 805.271 144.978C802.179 144.4 798.884 144.921 795.762 145.065C790.068 145.325 790.155 139.949 790.155 135.238C778.391 135.238 763.969 155.21 752.696 148.851C750.211 148.591 748.274 145.614 746.598 144.111C744.546 142.29 741.771 142.059 739.199 141.452C732.956 140.036 735.21 144.082 730.036 144.516C728.649 136.423 730.817 131.163 738.014 127.319C746.656 122.694 740.124 118.821 733.1 121.914C730.152 123.214 729.979 126.914 726.655 128.099C721.857 129.833 722.55 129.602 721.654 134.111C721.105 136.943 717.435 138.042 715.064 138.735C711.509 139.776 708.937 141.857 705.642 142.926C701.509 144.082 700.266 144.227 699.197 148.62C698.85 149.979 698.647 150.846 698.705 151.539L698.647 151.568Z" fill="#A3D3D8" stroke="#34317A" stroke-width="1.5" stroke-miterlimit="10"></path>
  <path d="M757.177 401.87C756.888 408.951 755.934 410.974 750.355 415.743C746.367 419.154 740.21 413.2 738.303 417.94C737.378 420.252 737.436 422.507 737.378 424.675C733.071 421.264 727.435 409.298 725.846 404.963C723.215 397.795 707.637 390.887 709.833 382.736C712.752 379.759 712.926 374.123 710.874 370.626C708.677 366.926 705.122 369.007 702.318 366.724C699.226 364.209 697 360.22 695.497 356.608C693.936 352.879 688.907 352.706 686.595 348.919C684.63 345.711 683.849 335.45 683.676 331.028C683.155 321.866 691.48 317.068 691.422 308.252C691.364 301.287 697.434 297.24 703.07 293.57C709.313 288.512 708.677 286.257 705.209 280.708C703.764 278.396 701.567 275.274 701.567 272.355C698.503 270.881 695.497 268.944 692.867 266.632C697.578 266.748 708.59 266.141 712.434 266.054C722.608 265.765 732.811 265.505 742.985 265.216C745.644 265.129 748.303 265.013 750.991 265.013C750.991 265.013 751.049 270.014 753.506 276.661C755.934 283.309 760.703 283.858 760.703 283.858L765.53 358.11C765.79 358.573 766.715 360.394 767.09 363.226C765.587 374.701 758.13 391.494 757.234 401.812L757.177 401.87Z" fill="#A3D3D8" stroke="#34317A" stroke-width="1.5" stroke-miterlimit="10"></path>
  <path d="M619.656 520.922C618.5 495.863 616.881 465.399 616.101 438.606L714.256 436.091C715.412 438.201 715.932 439.993 716.279 441.467L727.378 441.207C726.655 444.242 725.904 447.392 725.846 447.884C725.528 450.138 727.378 451.815 727.147 454.011C727.002 455.283 725.701 457.306 725.355 458.665C724.69 461.064 722.84 463.463 721.626 465.63C719.805 468.925 719.314 472.712 717.637 476.151C712.608 485.776 702.955 498.985 698.821 509.014C696.365 514.939 698.186 516.962 700.122 522.223C701.914 527.107 695.7 532.57 694.515 537.368C681.191 537.484 667.866 537.57 654.513 537.686C650.698 537.686 630.899 535.114 628.182 537.888C628.095 533.119 627.72 524.651 625.668 524.101C623.673 523.003 621.679 521.963 619.627 520.951L619.656 520.922Z" fill="#A3D3D8" stroke="#34317A" stroke-width="1.5" stroke-miterlimit="10"></path>
  <path d="M1043.95 262.643C1043.41 260.967 1042.88 259.319 1042.91 259.03C1043.06 257.961 1044.5 256.371 1045.08 255.446C1045.83 254.204 1043.55 248.799 1043.2 247.238C1042.02 241.977 1041.5 236.601 1041.15 231.225C1040.63 223.393 1040.51 215.56 1039.33 207.958C1038.43 203.189 1036.87 198.045 1035.98 193.131C1036.01 193.333 1034.91 188.94 1034.42 186.657C1033.66 184.489 1033.06 186.05 1031.87 185.125C1030.46 183.998 1028.84 175.298 1028.72 173.419C1028.43 168.679 1028.64 165.268 1026.18 161.02C1024.18 157.551 1025.11 150.528 1024.18 147.059C1022.25 147.637 1015.66 149.805 1013.72 150.383C1007.91 152.089 1001.67 152.956 996.004 155.037C989.963 157.233 986.61 162.58 983.662 167.985C980.454 173.824 977.882 180.009 974.037 185.443C970.656 190.212 978.517 188.362 975.945 192.38C973.835 195.703 979.5 197.524 978.517 201.195C978.113 202.756 976.581 203.103 975.251 203.536C973.431 204.114 972.997 206.542 971.61 207.872C969.933 209.49 967.881 210.849 966.494 212.727C965.222 214.433 961.551 213.016 959.094 214.028C956.551 215.069 956.146 216.861 953.487 216.167C952.013 215.791 950.481 215.56 948.978 215.387C942.446 214.722 932.186 214.664 927.503 220.213C925.336 222.757 925.364 226.052 927.619 228.422C931.463 232.411 932.475 234.058 929.122 239.058C926.145 243.48 921.896 246.833 918.428 250.822C917.445 251.949 916.925 252.874 916.665 253.741C916.144 255.475 916.751 257.094 917.272 259.84C944.903 254.088 972.563 248.365 1000.19 242.613C1007.68 241.053 1010.4 248.394 1015.37 252.267C1016.93 253.481 1020.46 256.545 1021.79 257.556C1023.98 258.51 1039.59 262.036 1039.36 263.337C1041.9 266.458 1035.14 272.933 1041.41 273.915C1045.14 274.522 1048.38 271.343 1052.08 270.042C1057.63 268.106 1063.64 269.782 1068.96 266.545C1072.19 264.551 1074.19 261.227 1074.53 257.47C1074.53 257.181 1074.68 252.412 1074.16 252.614C1073.41 252.932 1073.23 253.51 1072.48 253.712C1070.29 254.261 1070.75 255.1 1069.65 257.065C1067.02 261.776 1065.69 254.608 1062.68 255.302C1060.54 255.793 1056.56 258.221 1054.82 259.348C1052.54 262.239 1045.23 263.164 1045.25 266.632C1045.31 266.632 1044.62 264.638 1043.98 262.701L1043.95 262.643Z" fill="#A3D3D8" stroke="#34317A" stroke-width="1.5" stroke-miterlimit="10"></path>
</svg>
