<svg width="184" height="96" viewBox="0 0 184 96" fill="none" xmlns="http://www.w3.org/2000/svg">
<g clip-path="url(#clip0_7810_159)">
<path d="M98.1993 47.1906C102.378 47.1906 105.217 50.4234 105.217 55.2332V64.1826C105.217 64.3009 105.099 64.4192 104.98 64.4192H100.88C100.762 64.4192 100.644 64.3009 100.644 64.1826V55.2726C100.644 53.4197 99.7368 51.409 97.1742 51.409H97.0954C95.1636 51.4484 93.5077 53.1831 93.5077 55.1544V64.1826C93.5077 64.3009 93.3894 64.4192 93.2712 64.4192H89.2104C89.0922 64.4192 88.9739 64.3009 88.9739 64.1826V47.6242C88.9739 47.506 89.0922 47.3877 89.2104 47.3877H93.1529C93.2712 47.3877 93.3894 47.506 93.3894 47.6242V49.083C94.8876 47.7819 96.4251 47.1906 98.1993 47.1906ZM160.687 61.4229C160.609 61.5017 160.648 61.6594 160.727 61.7383C163.171 64.1826 165.813 64.498 168.099 64.498C171.332 64.498 173.737 63.2758 174.762 61.1075C175.077 60.4373 175.235 59.7276 175.235 58.9785C175.235 54.6024 171.45 53.8139 168.178 53.6168C165.576 53.4591 165.576 52.5523 165.576 52.2369C165.576 51.133 167.35 51.0148 168.099 51.0148C169.558 51.0148 170.662 51.3696 171.569 52.1581C171.647 52.2369 171.805 52.2369 171.884 52.1187L174.21 49.4378C174.289 49.3589 174.289 49.2012 174.171 49.1224C172.475 47.7031 170.662 47.1117 168.02 47.1117C166.325 47.1117 164.669 47.5454 163.447 48.255C161.87 49.2012 161.042 50.6205 161.042 52.3552C161.042 55.3909 163.447 57.2439 167.863 57.5593C170.346 57.717 170.662 58.4266 170.662 59.0574C170.662 59.9642 169.44 60.4373 168.257 60.4373H168.139C166.207 60.3978 164.354 59.6882 163.132 58.5449C163.013 58.466 162.856 58.466 162.777 58.5843L160.687 61.4229ZM119.489 58.6237C120.159 57.8352 120.474 56.7313 120.474 55.5486C120.474 53.4197 119.173 51.1725 116.019 51.1725C113.417 51.1725 111.682 52.9466 111.682 55.588C111.682 58.2295 113.417 60.043 116.019 60.043C117.36 60.043 118.7 59.5305 119.489 58.6237ZM120.356 47.5848C120.356 47.4665 120.474 47.3483 120.592 47.3483H124.653C124.771 47.3483 124.89 47.4665 124.89 47.5848V64.1826C124.89 64.3009 124.771 64.4192 124.653 64.4192H120.592C120.474 64.4192 120.356 64.3009 120.356 64.1826V62.921C118.937 64.222 117.241 64.2615 115.783 64.3009H115.546C113.102 64.3009 111.052 63.5518 109.554 62.0931C107.977 60.5555 107.188 58.3083 107.188 55.6275C107.188 50.4234 110.5 47.0723 115.664 47.0723H115.743C117.36 47.0723 119.055 47.23 120.395 48.3339L120.356 47.5848ZM69.8529 43.2481V39.2662C69.8529 39.1085 69.7346 38.9902 69.5769 38.9902H54.7927C54.635 38.9902 54.5167 39.1085 54.5167 39.2662V64.1038C54.5167 64.2615 54.635 64.3797 54.7927 64.3797H58.7746C58.9323 64.3797 59.0506 64.2615 59.0506 64.1038V53.9716C59.0506 53.8139 59.1688 53.6956 59.3265 53.6956H66.7778C66.9355 53.6956 67.0538 53.5774 67.0538 53.4197V49.3983C67.0538 49.2407 66.9355 49.1224 66.7778 49.1224H59.3265C59.1688 49.1224 59.0506 49.0041 59.0506 48.8464V43.8395C59.0506 43.6818 59.1688 43.5635 59.3265 43.5635H69.5375C69.7346 43.5635 69.8529 43.4058 69.8529 43.2481ZM156.784 59.0968C156.705 59.018 156.548 59.018 156.469 59.0968C155.68 59.767 154.655 60.1219 153.67 60.1219C151.186 60.1219 149.451 58.3478 149.451 55.7851C149.451 53.2225 151.186 51.4484 153.67 51.4484C154.655 51.4484 155.641 51.8033 156.469 52.4735C156.548 52.5523 156.705 52.5523 156.784 52.4735L159.426 49.7137C159.505 49.6349 159.505 49.4772 159.426 49.3983C157.731 47.7819 155.996 47.1117 153.63 47.1117C148.308 47.1117 144.878 50.5417 144.878 55.864C144.878 61.1863 148.308 64.6163 153.63 64.6163C155.996 64.6163 157.731 63.9461 159.426 62.3296C159.505 62.2508 159.505 62.0931 159.426 62.0142L156.784 59.0968ZM135.574 64.4192C135.692 64.4192 135.81 64.3009 135.81 64.1826V60.4767C135.81 60.3584 135.692 60.2401 135.574 60.2401H133.563C132.38 60.2007 131.828 59.6093 131.828 58.3478V52.0004H135.574C135.692 52.0004 135.81 51.8821 135.81 51.7638V47.6242C135.81 47.506 135.692 47.3877 135.574 47.3877H131.868V43.8C131.868 43.6818 131.75 43.5635 131.631 43.5635H127.531C127.413 43.5635 127.295 43.6818 127.295 43.8V58.3478C127.295 62.2114 129.463 64.4192 133.287 64.4192H134.036H135.574ZM81.0889 58.6237C81.7592 57.8352 82.0746 56.7313 82.0746 55.5486C82.0746 53.4197 80.7736 51.1725 77.6196 51.1725C75.0175 51.1725 73.2829 52.9466 73.2829 55.588C73.2829 58.2295 75.0175 60.043 77.6196 60.043C78.9994 60.043 80.3399 59.5305 81.0889 58.6237ZM81.9957 47.5848C81.9957 47.4665 82.114 47.3483 82.2323 47.3483H86.293C86.4113 47.3483 86.5296 47.4665 86.5296 47.5848V64.1826C86.5296 64.3009 86.4113 64.4192 86.293 64.4192H82.2323C82.114 64.4192 81.9957 64.3009 81.9957 64.1826V62.921C80.5764 64.222 78.8812 64.2615 77.4225 64.3009H77.1859C74.7416 64.3009 72.6915 63.5518 71.1934 62.0931C69.6164 60.5555 68.8279 58.3083 68.8279 55.6275C68.7885 50.4234 72.1001 47.0329 77.2253 47.0329H77.3042C78.9206 47.0329 80.6159 47.1906 81.9563 48.2945L81.9957 47.5848ZM138.255 64.4192H142.355C142.473 64.4192 142.591 64.3009 142.591 64.1826V47.5848C142.591 47.4665 142.473 47.3483 142.355 47.3483H138.255C138.136 47.3483 138.018 47.4665 138.018 47.5848V64.1826C138.058 64.3009 138.136 64.4192 138.255 64.4192ZM142.907 42.3413C142.907 38.9902 137.86 38.9902 137.86 42.3413C137.821 45.653 142.907 45.653 142.907 42.3413Z" fill="#423F38"/>
<path d="M47.5788 34.1802L43.321 40.8036C43.2421 40.9219 43.045 41.0007 42.9267 40.9219C33.11 35.9938 21.7557 45.0615 11.7418 42.8931C11.663 42.8537 11.5841 42.8142 11.5053 42.7354C11.5447 42.7354 6.69547 35.3236 5.07906 32.8398C4.88194 32.5244 5.11849 32.0907 5.55216 32.1302C6.4195 32.3273 10.2043 33.1552 13.1217 33.3917C28.3002 34.2197 36.5399 25.1126 47.5394 33.7466C47.6577 33.8254 47.6971 34.0225 47.5788 34.1802ZM35.1995 53.1435C35.2783 53.1829 35.3572 53.1435 35.436 53.0647L40.5612 45.0615C40.6401 44.9432 40.5612 44.8249 40.443 44.7855C32.9917 42.2229 26.0136 47.151 15.3689 47.4269C15.0929 47.4269 14.817 47.7423 15.0141 48.0972L26.4866 65.8383C26.6443 66.1537 27.0386 65.9565 26.9992 65.6806L24.5154 54.4445C24.476 54.3263 24.5548 54.2474 24.6337 54.208C25.6193 53.932 32.1244 51.7242 35.1995 53.1435Z" fill="#423F38"/>
<path d="M178.152 45.5743C178.152 46.4022 177.64 47.0724 176.694 47.0724C175.747 47.0724 175.235 46.4022 175.235 45.5743C175.235 44.7464 175.747 44.0762 176.694 44.0762C177.64 44.0762 178.152 44.7464 178.152 45.5743ZM176.694 46.8359C177.482 46.8359 177.916 46.284 177.916 45.5743C177.916 44.8647 177.482 44.3127 176.694 44.3127C175.905 44.3127 175.472 44.8647 175.472 45.5743C175.472 46.284 175.905 46.8359 176.694 46.8359ZM176.93 45.7714C177.522 45.6926 177.482 44.7858 176.812 44.7858H176.102V46.3234H176.339V45.7714H176.654L177.127 46.3234H177.403V46.284L176.93 45.7714ZM176.812 45.0224C177.206 45.0224 177.206 45.5743 176.812 45.5743H176.339V45.0224H176.812Z" fill="#423F38"/>
</g>
<defs>
<clipPath id="clip0_7810_159">
<rect width="173.153" height="36" fill="white" transform="translate(5 30)"/>
</clipPath>
</defs>
</svg>
