<svg width="184" height="96" viewBox="0 0 184 96" fill="none" xmlns="http://www.w3.org/2000/svg">
<path fill-rule="evenodd" clip-rule="evenodd" d="M131.753 32.2449L129.651 40.7043L127.002 40.7317L129.023 32.2723L125.992 32.327L126.62 30L138.115 30.0273L138.77 37.3096L142.647 30.0273H145.487L139.234 40.7043L136.832 40.7317L135.33 30.3285L135.634 32.2175L131.753 32.2449Z" fill="#423F38"/>
<path fill-rule="evenodd" clip-rule="evenodd" d="M38.1639 45.1407L39.4744 38.7346L43.1331 38.8167C44.2433 31.8448 48.8484 29.1709 56.7027 30.2202L55.5014 36.5991L52.5527 36.5442C51.0933 36.6001 50.3129 37.4001 50.0954 38.8166L53.9178 38.7914L52.7165 45.1154L48.8121 45.1703L44.8531 65.3745L38 65.3995L41.9044 45.1132L38.1639 45.1407ZM56.1623 38.5149H63.3704L60.6127 52.7508C60.0667 55.7623 59.4933 59.1023 63.0701 59.732C64.0626 59.8751 65.0831 59.7332 66.0488 59.2799C68.96 57.9121 69.6689 55.0178 70.2575 52.1131L73.0085 38.5424L79.9161 38.5172L74.6193 65.2098L68.285 65.2919L68.558 63.9778C64.3451 66.763 59.222 66.3903 56.1652 64.3663C53.1963 62.2675 52.5196 58.5916 53.2639 53.9378L56.1623 38.5149ZM76.9624 65.293L83.7336 65.2679L84.1432 63.1051C88.3023 67.6133 97.813 66.1258 101.126 63.16C99.3007 61.2847 98.5271 59.0581 98.2317 56.6717C95.8744 59.7563 91.251 60.1304 88.8666 58.287C86.6278 56.691 86.0474 53.5107 86.6299 50.7546C87.1561 48.2652 88.7863 46.061 91.1678 45.1028C93.986 43.969 97.3648 44.6942 99.0234 46.8981C101.816 51.4523 99.5708 55.2414 101.524 59.3205C102.686 61.7484 104.979 63.81 107.418 64.8636C110.354 66.1317 113.94 66.3754 117.259 65.4078C121.157 64.2715 124.361 61.459 126.128 57.8107C128.231 53.4719 128.379 48.1156 126.172 44.089C122.52 37.4238 112.587 35.7958 106.45 40.5192C107.995 42.4379 108.691 44.6328 109.181 46.9529C111.729 43.5764 116.652 43.978 118.955 46.022C120.931 47.7668 121.481 51.8451 119.999 55.055C118.85 57.5439 116.755 58.8907 114.105 59.3016C109.441 60.0252 106.949 56.2608 106.723 52.3462C106.67 48.4391 106.357 45.6253 104.918 43.3506C103.929 41.786 102.328 40.36 100.689 39.5155C97.1401 37.6869 92.15 37.5539 88.7031 39.6981L90.5324 30.2803L83.7338 30.2551L76.9624 65.293Z" fill="#423F38"/>
</svg>
