<svg width="48" height="48" viewBox="0 0 48 48" fill="none" xmlns="http://www.w3.org/2000/svg">
<circle cx="24" cy="24" r="24" fill="#0B0A09"/>
<path d="M16.4995 26.4992C15.8008 26.4992 15.2094 26.2572 14.7255 25.7732C14.2415 25.2892 13.9995 24.6979 13.9995 23.9992C13.9995 23.3005 14.2415 22.7092 14.7255 22.2252C15.2094 21.7412 15.8008 21.4992 16.4995 21.4992V18.9992C16.4995 18.5918 16.6476 18.24 16.9439 17.9437C17.2402 17.6474 17.5921 17.4992 17.9994 17.4992H21.4995C21.4995 16.8005 21.7414 16.2092 22.2254 15.7252C22.7094 15.2413 23.3007 14.9993 23.9994 14.9993C24.6981 14.9993 25.2895 15.2413 25.7735 15.7252C26.2574 16.2092 26.4994 16.8005 26.4994 17.4992H29.9994C30.4068 17.4992 30.7586 17.6474 31.0549 17.9437C31.3513 18.24 31.4994 18.5918 31.4994 18.9992V21.4992C32.1981 21.4992 32.7894 21.7412 33.2734 22.2252C33.7574 22.7092 33.9994 23.3005 33.9994 23.9992C33.9994 24.6979 33.7574 25.2892 33.2734 25.7732C32.7894 26.2572 32.1981 26.4992 31.4994 26.4992V30.9992C31.4994 31.4066 31.3513 31.7584 31.0549 32.0547C30.7586 32.351 30.4068 32.4992 29.9994 32.4992H17.9994C17.5921 32.4992 17.2402 32.351 16.9439 32.0547C16.6476 31.7584 16.4995 31.4066 16.4995 30.9992V26.4992ZM20.9983 24.7492C21.3452 24.7492 21.6405 24.6278 21.884 24.3849C22.1276 24.1421 22.2494 23.8472 22.2494 23.5003C22.2494 23.1534 22.128 22.8582 21.8852 22.6146C21.6423 22.371 21.3475 22.2492 21.0006 22.2492C20.6537 22.2492 20.3584 22.3706 20.1148 22.6135C19.8713 22.8563 19.7495 23.1512 19.7495 23.4981C19.7495 23.845 19.8709 24.1402 20.1137 24.3838C20.3565 24.6274 20.6514 24.7492 20.9983 24.7492ZM26.9983 24.7492C27.3452 24.7492 27.6405 24.6278 27.884 24.3849C28.1276 24.1421 28.2494 23.8472 28.2494 23.5003C28.2494 23.1534 28.128 22.8582 27.8852 22.6146C27.6423 22.371 27.3475 22.2492 27.0006 22.2492C26.6537 22.2492 26.3584 22.3706 26.1148 22.6135C25.8713 22.8563 25.7495 23.1512 25.7495 23.4981C25.7495 23.845 25.8709 24.1402 26.1137 24.3838C26.3565 24.6274 26.6514 24.7492 26.9983 24.7492ZM20.2495 28.7492H27.7494V27.2492H20.2495V28.7492Z" fill="#FAF7F0"/>
</svg>
