<svg width="12" height="20" viewBox="0 0 12 20" fill="none" xmlns="http://www.w3.org/2000/svg">
<path d="M11.6733 13.6442C11.6733 15.2682 11.1082 16.6501 9.97813 17.7901C8.848 18.93 7.47236 19.5 5.85123 19.5C4.23008 19.5 2.85284 18.93 1.71951 17.7901C0.586189 16.6501 0.0195312 15.2682 0.0195312 13.6442V4.65383C0.0195312 3.49999 0.420164 2.51923 1.22143 1.71155C2.02271 0.903851 3.00027 0.5 4.15411 0.5C5.30796 0.5 6.28551 0.903851 7.08678 1.71155C7.88806 2.51923 8.28871 3.49999 8.28871 4.65383V13.1634C8.28871 13.8403 8.05294 14.4182 7.58141 14.8971C7.10989 15.3759 6.53521 15.6153 5.85738 15.6153C5.17956 15.6153 4.60124 15.3776 4.12241 14.9021C3.64356 14.4265 3.40413 13.847 3.40413 13.1634V4.38463H4.90411V13.1634C4.90411 13.4314 4.99416 13.657 5.17428 13.8404C5.35441 14.0237 5.57846 14.1154 5.84641 14.1154C6.11437 14.1154 6.33841 14.0237 6.51853 13.8404C6.69866 13.657 6.78873 13.4314 6.78873 13.1634V4.64423C6.77848 3.90576 6.52201 3.28043 6.01933 2.76825C5.51665 2.25607 4.89491 1.99998 4.15411 1.99998C3.41642 1.99998 2.7929 2.25767 2.28353 2.77305C1.77416 3.28843 1.51948 3.91536 1.51948 4.65383V13.6442C1.50923 14.8532 1.92718 15.8814 2.77333 16.7288C3.6195 17.5763 4.64662 18 5.85471 18C7.04579 18 8.05821 17.5763 8.89196 16.7288C9.72571 15.8814 10.1528 14.8532 10.1734 13.6442V4.38463H11.6733V13.6442Z" fill="#423F38"/>
</svg>
