<svg width="32" height="32" viewBox="0 0 32 32" fill="none" xmlns="http://www.w3.org/2000/svg">
  <path
    d="M16.0001 22C14.3351 22 12.9189 21.4163 11.7514 20.2487C10.5839 19.0812 10.0001 17.665 10.0001 16C10.0001 14.3351 10.5839 12.9189 11.7514 11.7513C12.9189 10.5838 14.3351 10.0001 16.0001 10.0001C17.665 10.0001 19.0812 10.5838 20.2488 11.7513C21.4163 12.9189 22 14.3351 22 16C22 17.665 21.4163 19.0812 20.2488 20.2487C19.0812 21.4163 17.665 22 16.0001 22ZM6.66675 17H1.66675V15.0001H6.66675V17ZM30.3334 17H25.3334V15.0001H30.3334V17ZM15.0001 6.66672V1.66675H17V6.66672H15.0001ZM15.0001 30.3334V25.3334H17V30.3334H15.0001ZM8.76421 10.1025L5.64115 7.08718L7.05391 5.60775L10.0616 8.69748L8.76421 10.1025ZM24.9462 26.3923L21.918 23.282L23.2359 21.8975L26.359 24.9128L24.9462 26.3923ZM21.8975 8.76415L24.9129 5.64108L26.3923 7.05385L23.3026 10.0615L21.8975 8.76415ZM5.60781 24.9462L8.71805 21.918L10.077 23.2359L7.07445 26.3718L5.60781 24.9462Z"
    fill="#0B0A09" />
</svg>