<svg width="48" height="48" viewBox="0 0 48 48" fill="none" xmlns="http://www.w3.org/2000/svg">
<circle cx="24" cy="24" r="24" fill="#0B0A09"/>
<path d="M27.2884 26.8457C27.0499 26.8457 26.8493 26.7643 26.6864 26.6015C26.5236 26.4387 26.4422 26.238 26.4422 25.9996V21.9996C26.4422 21.7611 26.5236 21.5605 26.6864 21.3977C26.8493 21.2348 27.0499 21.1534 27.2884 21.1534H29.7884C30.0268 21.1534 30.2274 21.2348 30.3903 21.3977C30.5531 21.5605 30.6345 21.7611 30.6345 21.9996V25.9996C30.6345 26.238 30.5531 26.4387 30.3903 26.6015C30.2274 26.7643 30.0268 26.8457 29.7884 26.8457H27.2884ZM27.6345 25.6534H29.4422V22.3457H27.6345V25.6534ZM17.3653 26.8457V24.4419C17.3653 24.2034 17.4531 23.9964 17.6288 23.8207C17.8044 23.6451 18.0115 23.5573 18.2499 23.5573H20.3653V22.3457H17.3653V21.1534H20.7115C20.9499 21.1534 21.1506 21.2348 21.3134 21.3977C21.4762 21.5605 21.5576 21.7611 21.5576 21.9996V23.5573C21.5576 23.7957 21.4698 24.0028 21.2941 24.1784C21.1185 24.3541 20.9115 24.4419 20.673 24.4419H18.5576V25.6534H21.5576V26.8457H17.3653ZM23.4038 22.9323V21.74H24.5961V22.9323H23.4038ZM23.4038 26.3169V25.1246H24.5961V26.3169H23.4038ZM16.2884 31.3938C15.7833 31.3938 15.3557 31.2188 15.0057 30.8688C14.6557 30.5188 14.4807 30.0912 14.4807 29.5861V18.4708C14.4807 17.9657 14.6557 17.5381 15.0057 17.1881C15.3557 16.8381 15.7833 16.6631 16.2884 16.6631H19.2499V14.6631H20.7499V16.6631H27.2499V14.6631H28.7499V16.6631H31.7114C32.2166 16.6631 32.6441 16.8381 32.9941 17.1881C33.3441 17.5381 33.5191 17.9657 33.5191 18.4708V29.5861C33.5191 30.0912 33.3441 30.5188 32.9941 30.8688C32.6441 31.2188 32.2166 31.3938 31.7114 31.3938H16.2884ZM16.2884 29.8938H23.4038V28.5092H24.5961V29.8938H31.7114C31.7884 29.8938 31.8589 29.8618 31.923 29.7976C31.9871 29.7335 32.0191 29.663 32.0191 29.5861V18.4708C32.0191 18.3939 31.9871 18.3233 31.923 18.2592C31.8589 18.1951 31.7884 18.1631 31.7114 18.1631H24.5961V19.5477H23.4038V18.1631H16.2884C16.2115 18.1631 16.141 18.1951 16.0768 18.2592C16.0127 18.3233 15.9807 18.3939 15.9807 18.4708V29.5861C15.9807 29.663 16.0127 29.7335 16.0768 29.7976C16.141 29.8618 16.2115 29.8938 16.2884 29.8938Z" fill="#FAF7F0"/>
</svg>
