<svg width="48" height="48" viewBox="0 0 48 48" fill="none" xmlns="http://www.w3.org/2000/svg">
<circle cx="24" cy="24" r="24" fill="#0B0A09"/>
<path d="M12.5 29.7885V28.5693C12.5 27.9039 12.8475 27.3575 13.5423 26.9299C14.2372 26.5023 15.143 26.2885 16.2596 26.2885C16.4442 26.2885 16.6301 26.2943 16.8173 26.3059C17.0045 26.3174 17.1929 26.3398 17.3827 26.3732C17.1878 26.6847 17.0433 27.0081 16.949 27.3433C16.8548 27.6786 16.8077 28.0225 16.8077 28.3751V29.7885H12.5H12.5ZM18.5 29.7885V28.4135C18.5 27.9454 18.6314 27.5174 18.8942 27.1297C19.1571 26.742 19.5359 26.4039 20.0308 26.1155C20.5256 25.827 21.1103 25.6107 21.7846 25.4664C22.459 25.3222 23.1961 25.2501 23.9961 25.2501C24.8115 25.2501 25.5564 25.3222 26.2307 25.4664C26.9051 25.6107 27.4897 25.827 27.9846 26.1155C28.4794 26.4039 28.8557 26.742 29.1134 27.1297C29.3711 27.5174 29.5 27.9454 29.5 28.4135V29.7885H18.5ZM31.1923 29.7885V28.3779C31.1923 28.0018 31.1477 27.6473 31.0586 27.3146C30.9695 26.9818 30.8359 26.668 30.6577 26.3732C30.8538 26.3398 31.0413 26.3174 31.2202 26.3059C31.399 26.2943 31.5756 26.2885 31.75 26.2885C32.8666 26.2885 33.7708 26.4998 34.4625 26.9222C35.1541 27.3446 35.5 27.8937 35.5 28.5693V29.7885H31.1923ZM20.0769 28.2885H27.9385V28.1828C27.8359 27.7789 27.4102 27.4392 26.6615 27.1635C25.9128 26.8879 25.0256 26.7501 24 26.7501C22.9743 26.7501 22.0871 26.8879 21.3384 27.1635C20.5897 27.4392 20.1692 27.7789 20.0769 28.1828V28.2885ZM16.2571 25.3174C15.7857 25.3174 15.383 25.1498 15.0491 24.8146C14.7151 24.4795 14.5481 24.0766 14.5481 23.6059C14.5481 23.129 14.7157 22.7261 15.0509 22.3972C15.386 22.0684 15.7889 21.904 16.2596 21.904C16.7365 21.904 17.141 22.0684 17.4731 22.3972C17.8051 22.7261 17.9711 23.1299 17.9711 23.6087C17.9711 24.0735 17.8069 24.4745 17.4783 24.8116C17.1498 25.1488 16.7427 25.3174 16.2571 25.3174ZM31.75 25.3174C31.2833 25.3174 30.8814 25.1488 30.5442 24.8116C30.207 24.4745 30.0385 24.0735 30.0385 23.6087C30.0385 23.1299 30.207 22.7261 30.5442 22.3972C30.8814 22.0684 31.2839 21.904 31.7518 21.904C32.2339 21.904 32.6394 22.0684 32.9682 22.3972C33.2971 22.7261 33.4615 23.129 33.4615 23.6059C33.4615 24.0766 33.2975 24.4795 32.9694 24.8146C32.6414 25.1498 32.2349 25.3174 31.75 25.3174ZM24.0034 24.5001C23.2832 24.5001 22.6699 24.2477 22.1635 23.7429C21.6571 23.2381 21.4038 22.6251 21.4038 21.904C21.4038 21.1684 21.6562 20.5518 22.161 20.0542C22.6658 19.5567 23.2788 19.3079 24 19.3079C24.7355 19.3079 25.3521 19.5563 25.8497 20.0533C26.3473 20.5502 26.5961 21.166 26.5961 21.9006C26.5961 22.6208 26.3476 23.2341 25.8507 23.7405C25.3538 24.2469 24.738 24.5001 24.0034 24.5001ZM24.0048 23.0001C24.3106 23.0001 24.5689 22.8931 24.7798 22.679C24.9907 22.4649 25.0961 22.2049 25.0961 21.8992C25.0961 21.5934 24.9911 21.3351 24.781 21.1242C24.5709 20.9133 24.3106 20.8078 24 20.8078C23.6974 20.8078 23.4391 20.9129 23.225 21.123C23.0109 21.3331 22.9038 21.5934 22.9038 21.904C22.9038 22.2065 23.0109 22.4649 23.225 22.679C23.4391 22.8931 23.699 23.0001 24.0048 23.0001Z" fill="#FAF7F0"/>
</svg>
