<svg width="48" height="48" viewBox="0 0 48 48" fill="none" xmlns="http://www.w3.org/2000/svg">
<circle cx="24" cy="24" r="24" fill="#0B0A09"/>
<path d="M19.1154 29.1153C18.8647 29.1153 18.6546 29.0305 18.4851 28.861C18.3155 28.6914 18.2307 28.4813 18.2307 28.2307V26.7307H30.6057L30.923 27.0481V18H32.423C32.6736 18 32.8837 18.0847 33.0533 18.2543C33.2228 18.4239 33.3076 18.6339 33.3076 18.8846V32.6537L29.7692 29.1153H19.1154ZM14.6923 28.2691V15.3846C14.6923 15.134 14.7771 14.9239 14.9466 14.7543C15.1162 14.5848 15.3263 14.5 15.5769 14.5H28.0384C28.2891 14.5 28.4992 14.5848 28.6687 14.7543C28.8383 14.9239 28.923 15.134 28.923 15.3846V23.8461C28.923 24.0968 28.8383 24.3069 28.6687 24.4764C28.4992 24.646 28.2891 24.7307 28.0384 24.7307H18.2307L14.6923 28.2691ZM27.4231 23.2308V16H16.1923V23.9231L16.8846 23.2308H27.4231Z" fill="#FAF7F0"/>
</svg>
