<svg width="24" height="24" viewBox="0 0 24 24" fill="none" xmlns="http://www.w3.org/2000/svg">
  <path
    d="M12.0384 23.3332C8.89025 23.3332 6.21433 22.2313 4.01065 20.0276C1.80693 17.8239 0.705078 15.148 0.705078 11.9999C0.705078 8.98281 1.72858 6.39522 3.77558 4.23711C5.82256 2.079 8.32895 0.910202 11.2947 0.730713C11.4862 0.730713 11.6742 0.737546 11.8588 0.751213C12.0434 0.764879 12.2246 0.785391 12.4024 0.812746C11.722 1.44863 11.1802 2.217 10.7768 3.11785C10.3734 4.01871 10.1716 4.97939 10.1716 5.99988C10.1716 8.18508 10.9365 10.0425 12.4661 11.5721C13.9958 13.1018 15.8532 13.8666 18.0384 13.8666C19.0726 13.8666 20.0366 13.6649 20.9306 13.2615C21.8246 12.8581 22.5853 12.3162 23.2127 11.6359C23.24 11.8137 23.2605 11.9948 23.2742 12.1794C23.2879 12.364 23.2947 12.5521 23.2947 12.7435C23.1238 15.7093 21.9593 18.2157 19.8011 20.2627C17.643 22.3097 15.0554 23.3332 12.0384 23.3332Z"
    fill="#0B0A09" />
</svg>