<svg width="184" height="96" viewBox="0 0 184 96" fill="none" xmlns="http://www.w3.org/2000/svg">
<path d="M48.4762 30H60.8087C58.3588 38.8076 55.9226 47.6189 53.4752 56.4277C53.3709 56.7405 53.3678 57.103 53.5603 57.3842C53.8712 57.8559 54.4621 58.0428 55.0015 58.0725C55.642 58.0893 56.2826 58.075 56.9238 58.08C57.6189 58.0763 58.3408 58.1023 59.0012 57.8497C59.458 57.671 59.7392 57.2203 59.8615 56.7635C62.3418 47.843 64.8109 38.9193 67.2949 30H79.5547C76.9478 39.3724 74.3503 48.7473 71.7465 58.121C71.4659 59.1159 71.2015 60.1159 70.9098 61.1077C70.5343 62.3143 69.9142 63.4881 68.9285 64.3055C68.1998 64.9256 67.2874 65.2769 66.3676 65.501C65.0666 65.8256 63.7234 65.9119 62.3902 66H46.508C44.9407 65.9019 43.3356 65.5425 42.0291 64.6332C41.1719 64.0517 40.4823 63.1951 40.2018 62.1883C40.0634 61.7557 40.0907 61.2958 40.0931 60.8483C40.0956 60.3151 40.2787 59.8086 40.4128 59.299C43.1209 49.5331 45.8314 39.7672 48.5383 30.0006L48.4762 30Z" fill="#BDB9B2"/>
<path d="M85.3887 30H111.891C111.155 32.6348 110.428 35.2728 109.695 37.9088C100.86 37.9107 92.0257 37.9101 83.1908 37.9094C83.9226 35.2728 84.65 32.6348 85.3887 30Z" fill="#BDB9B2"/>
<path d="M123.857 30H143.962C143.672 31.1961 143.31 32.3754 142.991 33.5646C142.589 35.0127 142.187 36.4608 141.785 37.9088C137.435 37.9101 133.085 37.9088 128.735 37.9094C128.098 37.915 127.436 37.9094 126.837 38.1559C126.349 38.3619 126.095 38.8728 125.972 39.36C124.385 45.0834 122.796 50.8074 121.21 56.5314C121.094 56.887 121.193 57.2936 121.458 57.5568C121.847 57.9546 122.429 58.0794 122.967 58.0794C127.705 58.0806 132.442 58.0794 137.18 58.0806C136.449 60.7204 135.716 63.3602 134.984 66H114.847C113.339 65.9044 111.8 65.5711 110.519 64.7338C109.679 64.1963 108.972 63.4154 108.633 62.4677C108.323 61.6539 108.349 60.7471 108.584 59.9179C110.86 51.7161 113.137 43.5143 115.414 35.3125C115.744 34.1059 116.271 32.916 117.161 32.0154C117.749 31.4127 118.495 30.9807 119.291 30.7175C120.761 30.2222 122.32 30.1018 123.857 30Z" fill="#BDB9B2"/>
<path d="M81.6694 43.3689C90.5055 43.3676 99.3417 43.3683 108.178 43.3689C107.445 46.0118 106.711 48.6541 105.977 51.2963C101.229 51.2982 96.4816 51.2963 91.7333 51.2976C90.3727 56.1979 89.0153 61.0989 87.6547 65.9992L87.7385 65.9998H75.3899C77.4872 58.4572 79.5758 50.9127 81.6694 43.3689Z" fill="#BDB9B2"/>
</svg>
